<?xml version="1.0" standalone="no"?>
<!DOCTYPE svg PUBLIC "-//W3C//DTD SVG 20010904//EN"
 "http://www.w3.org/TR/2001/REC-SVG-20010904/DTD/svg10.dtd">
<svg version="1.0" xmlns="http://www.w3.org/2000/svg"
 width="1024.000000pt" height="1024.000000pt" viewBox="0 0 1024.000000 1024.000000"
 preserveAspectRatio="xMidYMid meet">
<metadata>
Created by potrace 1.14, written by Peter Selinger 2001-2017
</metadata>
<g transform="translate(0.000000,1024.000000) scale(0.100000,-0.100000)"
fill="#000000" stroke="none">
<path d="M0 5120 l0 -5120 3060 0 c1683 0 3060 2 3060 5 0 7 -142 96 -253 158
-59 32 -110 63 -113 68 -8 14 46 11 111 -7 68 -17 100 -35 269 -146 l119 -78
1993 0 1994 0 0 5120 0 5120 -5120 0 -5120 0 0 -5120z m4776 5046 c-8 -19 -12
-44 -9 -55 6 -22 19 -28 25 -12 2 5 22 -8 45 -28 41 -37 41 -37 20 -51 -20
-12 -21 -12 -9 2 11 14 8 19 -16 37 -28 19 -42 19 -42 -1 0 -5 10 -13 23 -18
20 -8 19 -9 -8 -6 -16 1 -31 8 -31 14 -1 7 -2 17 -3 22 0 6 -6 10 -12 10 -6 0
-8 -8 -5 -17 5 -16 5 -16 -6 -2 -7 9 -25 15 -40 15 -16 -1 -28 2 -28 6 0 4 -4
8 -10 8 -5 0 -10 -7 -10 -15 0 -20 -10 -19 -27 3 -10 13 -13 13 -11 2 2 -10
-4 -14 -16 -12 -10 2 -16 0 -13 -5 3 -4 -7 -17 -22 -27 l-26 -20 18 21 c10 12
15 23 10 25 -20 11 -65 -1 -90 -23 -22 -19 -24 -19 -10 -3 17 21 17 22 -3 27
-14 4 -20 0 -20 -12 0 -9 -6 -26 -14 -37 -14 -18 -15 -18 -21 -1 -4 9 -2 24 5
32 19 23 2 18 -82 -23 -43 -21 -78 -33 -78 -28 0 6 -7 0 -16 -13 -10 -14 -23
-21 -35 -18 -10 3 -18 2 -17 -2 3 -24 -5 -39 -27 -51 -13 -7 -27 -26 -30 -41
-6 -29 -25 -41 -25 -16 1 23 50 152 60 155 6 2 8 8 4 13 -3 5 2 9 10 9 10 0
13 -6 9 -17 -5 -15 -3 -15 10 2 8 10 12 26 9 34 -3 9 -1 12 6 7 7 -4 12 -2 12
4 0 7 7 9 16 6 12 -5 15 -2 12 12 -4 13 1 18 16 17 12 0 27 -4 35 -9 11 -7 13
-5 8 8 -6 14 -4 15 15 5 19 -10 20 -9 14 7 -5 14 -4 16 4 8 13 -13 53 -7 45 6
-6 10 21 7 31 -3 8 -8 64 24 64 37 0 5 3 6 7 3 3 -4 -2 -16 -12 -27 -19 -21
-7 -28 13 -8 9 9 12 9 12 0 0 -7 5 -12 11 -12 6 0 8 8 5 18 -5 13 2 22 21 32
16 8 32 16 37 19 5 2 5 -2 0 -10 -4 -8 -10 -22 -11 -32 -2 -13 5 -9 29 13 17
17 33 28 36 25 3 -3 12 1 20 8 12 9 12 5 -2 -21 -17 -33 -17 -33 3 -22 17 9
20 8 14 -6 -4 -12 -3 -15 5 -10 7 4 12 2 12 -3 0 -12 27 -10 49 3 7 5 19 24
27 42 8 19 17 34 19 34 3 0 -1 -15 -9 -34z m99 -81 c11 1 27 -3 35 -7 8 -4 28
-13 45 -19 23 -8 26 -12 15 -19 -9 -5 -19 -5 -26 1 -6 5 -18 7 -25 4 -18 -6
-79 30 -79 47 0 8 3 9 8 3 4 -5 16 -10 27 -10z m-217 -74 c14 -8 11 -10 -15
-8 -17 1 -29 5 -27 9 2 4 -1 10 -7 14 -8 4 -7 9 2 15 9 5 17 3 22 -6 4 -8 15
-19 25 -24z m347 29 c3 -5 1 -10 -4 -10 -6 0 -11 5 -11 10 0 6 2 10 4 10 3 0
8 -4 11 -10z m-275 -10 c0 -5 -7 -7 -15 -4 -8 4 -15 8 -15 10 0 2 7 4 15 4 8
0 15 -4 15 -10z m35 0 c3 -6 -1 -7 -9 -4 -18 7 -21 14 -7 14 6 0 13 -4 16 -10z
m-663 -82 c-1 -35 1 -39 8 -20 14 34 19 26 8 -13 -6 -19 -15 -32 -20 -29 -10
7 -10 1 2 -30 7 -19 5 -36 -10 -68 l-20 -43 5 50 c3 37 2 43 -4 25 -5 -14 -10
-20 -10 -15 -1 6 -8 -3 -16 -20 l-15 -30 4 28 c2 15 -1 27 -5 27 -5 0 -9 -12
-9 -27 l-1 -28 -13 30 c-10 24 -13 26 -19 12 -4 -10 -2 -17 5 -17 17 0 4 -10
-19 -14 -17 -4 -20 2 -21 40 -1 24 2 44 7 44 5 0 13 10 17 23 l8 22 7 -25 c7
-24 7 -24 9 5 1 17 4 25 6 18 7 -17 56 27 50 44 -7 17 21 17 27 1 3 -7 4 1 3
19 -3 32 2 48 12 38 3 -3 5 -24 4 -47z m-42 38 c0 -2 -7 -7 -16 -10 -8 -3 -12
-2 -9 4 6 10 25 14 25 6z m380 -20 c0 -2 -8 -10 -17 -17 -16 -13 -17 -12 -4 4
13 16 21 21 21 13z m24 -20 c-3 -9 -10 -16 -15 -16 -6 0 -5 9 1 21 13 24 24
20 14 -5z m-74 10 c0 -2 -8 -10 -17 -17 -16 -13 -17 -12 -4 4 13 16 21 21 21
13z m190 -7 c0 -9 -59 -39 -77 -39 -16 1 32 30 49 30 10 0 18 5 18 10 0 6 2
10 5 10 3 0 5 -5 5 -11z m-240 -43 c0 -3 -4 -8 -10 -11 -5 -3 -10 -1 -10 4 0
6 5 11 10 11 6 0 10 -2 10 -4z m85 -6 c4 -6 11 -7 17 -4 7 4 8 2 4 -4 -4 -7
-17 -17 -29 -22 -20 -10 -21 -10 -4 4 18 14 18 15 0 25 -10 6 -13 11 -6 11 6
0 15 -5 18 -10z m188 -7 c-7 -2 -19 -2 -25 0 -7 3 -2 5 12 5 14 0 19 -2 13 -5z
m-846 -35 c-3 -8 -6 -5 -6 6 -1 11 2 17 5 13 3 -3 4 -12 1 -19z m829 3 c-12
-12 -20 -12 -41 -3 -15 7 -25 8 -25 2 0 -6 6 -10 13 -11 16 -1 -68 -25 -172
-49 -46 -10 -89 -24 -95 -30 -8 -8 -5 -9 14 -2 14 5 57 15 95 21 39 6 96 18
128 25 57 14 69 4 19 -16 -25 -10 -26 -11 -7 -18 18 -8 18 -9 -5 -10 -23 -1
-23 -2 -5 -10 18 -8 17 -9 -7 -9 -21 -1 -26 3 -21 15 5 13 2 15 -18 8 -13 -4
-42 -11 -64 -15 -36 -7 -34 -8 12 -4 49 4 52 3 41 -14 -9 -14 -21 -17 -60 -14
-37 3 -50 0 -54 -12 -3 -8 -15 -15 -25 -15 -10 0 -19 -4 -19 -8 0 -5 -12 -14
-26 -21 -15 -6 -24 -14 -21 -17 3 -3 27 4 53 16 49 21 86 20 129 -3 11 -6 22
-12 25 -12 3 0 14 -6 25 -13 18 -12 17 -13 -10 -8 -16 3 -41 8 -55 11 -24 5
-24 5 -2 -5 12 -5 32 -14 45 -19 20 -9 19 -10 -10 -10 -17 -1 -34 3 -37 7 -2
4 -22 9 -43 9 l-38 2 40 -14 40 -14 -50 5 c-27 3 -59 8 -70 11 -13 3 -16 2
-10 -4 6 -5 29 -15 53 -22 23 -6 40 -16 37 -21 -3 -5 -12 -7 -20 -3 -11 4 -13
1 -9 -11 4 -11 1 -16 -11 -16 -10 0 -13 -5 -9 -12 7 -11 -8 -9 -51 8 l-20 7
20 -23 20 -23 -22 14 c-13 8 -23 17 -23 21 0 5 -5 8 -11 8 -5 0 -7 -4 -4 -10
8 -13 -16 -13 -49 0 -17 6 -26 6 -26 0 0 -6 4 -10 9 -10 13 0 71 -50 71 -61 0
-6 -8 -6 -19 1 -11 6 -22 6 -25 1 -3 -5 9 -16 27 -25 l32 -16 -40 0 c-22 0
-44 -4 -50 -8 -15 -11 -17 -32 -2 -26 8 3 14 -2 14 -10 0 -8 -4 -13 -8 -11 -4
3 -10 -2 -13 -11 -4 -11 -10 -13 -19 -7 -16 13 -99 15 -92 2 4 -5 2 -9 -4 -9
-6 0 -8 -8 -4 -17 5 -15 3 -16 -8 -5 -22 20 -34 14 -14 -8 12 -13 22 -17 28
-11 6 6 23 2 45 -10 22 -13 38 -17 44 -11 7 7 -3 16 -26 27 -20 10 -36 19 -36
21 0 2 17 4 38 3 29 0 33 -2 17 -9 -18 -7 -18 -8 7 -15 15 -4 26 -11 25 -17
-1 -5 13 -18 31 -28 19 -10 37 -22 40 -26 4 -4 1 -4 -5 0 -16 9 -17 -6 -1 -22
25 -25 -3 -11 -37 19 -20 18 -39 29 -42 25 -4 -3 -17 1 -30 9 -13 9 -23 13
-23 9 0 -4 -7 -1 -15 6 -8 6 -23 9 -33 6 -11 -4 -24 0 -32 9 -7 8 -18 15 -25
15 -7 0 -18 7 -25 15 -7 9 -21 13 -31 10 -23 -8 -26 10 -3 19 9 3 27 6 40 6
28 0 32 16 7 23 -16 4 -16 5 -1 6 9 0 20 -3 23 -9 10 -17 28 -11 21 6 -5 14
-4 15 9 4 11 -9 15 -9 15 -1 0 6 -7 14 -15 17 -8 3 -17 14 -20 24 -5 15 -11
17 -35 10 -17 -5 -30 -5 -30 0 0 4 19 12 43 16 23 4 34 9 24 12 -9 2 -14 8
-11 14 4 6 2 8 -3 5 -6 -4 -19 3 -29 15 -19 21 -19 21 4 9 22 -12 23 -11 13 8
-15 27 -14 44 3 38 8 -3 17 1 20 9 3 8 18 14 33 14 l28 0 -25 21 c-21 17 -22
19 -3 10 31 -16 54 -14 101 9 22 11 46 20 53 20 6 0 9 6 6 14 -4 9 2 12 19 10
15 -1 36 7 52 22 l27 24 -35 -6 c-33 -6 -34 -6 -15 9 27 22 10 21 -55 -4 -63
-24 -62 -20 11 27 56 36 53 44 -8 19 -36 -15 -36 -15 -18 5 12 13 14 20 5 20
-10 0 -10 3 0 15 7 8 18 14 24 14 17 -3 69 13 94 29 20 13 22 13 16 -2 -8 -20
-14 -21 81 9 78 24 133 33 90 15 -11 -5 -15 -9 -8 -9 18 -1 43 10 39 18 -3 4
18 7 45 7 44 0 48 -2 35 -15z m-921 -31 c3 -6 -1 -7 -9 -4 -18 7 -21 14 -7 14
6 0 13 -4 16 -10z m148 -29 c4 9 8 6 13 -11 l8 -25 7 30 7 30 1 -27 c1 -17 7
-28 15 -28 9 0 12 -7 9 -20 -3 -11 -1 -20 5 -20 12 0 22 -49 11 -56 -5 -3 -15
10 -23 28 l-14 33 -1 -27 c-1 -31 -15 -37 -25 -11 -6 14 -9 15 -16 3 -7 -11
-11 -11 -23 -1 -12 9 -16 9 -19 0 -3 -8 -11 -10 -24 -4 -10 4 -23 7 -29 6 -5
-2 -7 0 -3 4 4 4 -15 26 -42 50 -44 39 -47 45 -33 57 12 9 15 10 9 1 -4 -8 -2
-13 5 -13 6 0 20 -10 30 -22 20 -23 26 -9 9 23 -15 28 -5 23 30 -13 l30 -33
-6 35 -7 35 21 -25 c24 -28 27 -24 12 17 l-10 28 24 -29 c17 -20 25 -24 29
-15z m58 16 c-10 -9 -11 -8 -5 6 3 10 9 15 12 12 3 -3 0 -11 -7 -18z m742 16
c-7 -2 -21 -2 -30 0 -10 3 -4 5 12 5 17 0 24 -2 18 -5z m-686 -45 c-3 -8 -6
-5 -6 6 -1 11 2 17 5 13 3 -3 4 -12 1 -19z m653 -4 c0 -2 -7 -4 -15 -4 -8 0
-15 4 -15 10 0 5 7 7 15 4 8 -4 15 -8 15 -10z m-439 -18 c-7 -8 -10 -19 -7
-24 3 -5 -1 -9 -9 -9 -12 0 -11 5 2 28 9 16 19 26 21 24 3 -3 -1 -11 -7 -19z
m-627 -67 c-9 -15 -20 -10 -32 16 -12 25 -12 25 13 9 14 -9 22 -20 19 -25z
m419 -7 c4 -21 3 -31 -3 -27 -6 3 -10 20 -10 37 0 38 5 34 13 -10z m-469 20
c3 -5 -1 -9 -9 -9 -8 0 -12 4 -9 9 3 4 7 8 9 8 2 0 6 -4 9 -8z m742 -11 c-7
-10 -66 -33 -66 -25 0 4 57 32 68 34 2 0 1 -4 -2 -9z m225 -19 c-7 -2 -18 1
-23 6 -8 8 -4 9 13 5 13 -4 18 -8 10 -11z m-1051 -2 c0 -5 -4 -10 -10 -10 -5
0 -10 5 -10 10 0 6 5 10 10 10 6 0 10 -4 10 -10z m736 -28 c-17 -16 -18 -16
-5 5 7 12 15 20 18 17 3 -2 -3 -12 -13 -22z m-856 -36 c0 -2 -7 -7 -16 -10 -8
-3 -12 -2 -9 4 6 10 25 14 25 6z m1270 -6 c18 -12 2 -12 -25 0 -13 6 -15 9 -5
9 8 0 22 -4 30 -9z m-1268 -27 c-6 -2 -9 -10 -6 -15 4 -7 2 -8 -5 -4 -13 9 -5
26 12 25 9 0 8 -2 -1 -6z m-69 -40 c-14 -18 -29 -33 -34 -33 -5 0 -9 -5 -9
-11 0 -8 5 -8 15 1 10 9 15 9 15 1 0 -6 -5 -11 -10 -11 -12 0 -57 -50 -50 -55
3 -1 -2 -11 -11 -21 -15 -18 -25 -39 -37 -74 -3 -8 -5 -33 -5 -55 1 -32 -1
-36 -8 -20 -7 14 -8 7 -5 -24 3 -25 1 -39 -3 -32 -6 9 -10 7 -14 -8 -3 -12 -1
-21 4 -21 5 0 4 -12 -1 -26 -13 -33 -13 -53 1 -34 11 17 8 -11 -12 -115 -7
-33 -12 -94 -11 -135 1 -50 -1 -68 -7 -55 -5 11 -7 34 -4 50 4 27 3 28 -8 10
-7 -10 -12 -46 -12 -80 0 -33 -3 -62 -8 -65 -12 -8 -13 -57 -2 -110 7 -33 6
-49 -2 -57 -9 -8 -12 3 -13 45 -1 30 -7 59 -13 62 -8 6 -8 9 0 14 7 4 9 24 6
49 -4 31 -3 37 4 22 l10 -20 0 20 c1 11 4 31 7 45 6 24 6 25 -9 5 -16 -19 -16
-19 -12 15 2 19 6 69 8 110 2 41 9 84 15 96 6 11 22 83 37 160 30 166 39 197
75 249 15 22 29 45 31 52 7 20 73 89 86 89 6 1 0 -14 -14 -33z m33 8 c-4 -5
-3 -11 1 -14 5 -2 2 -2 -5 -1 -7 2 -15 -3 -18 -11 -4 -8 -10 -15 -15 -15 -5 0
-2 11 7 25 15 23 43 38 30 16z m-66 -95 c0 -2 -8 -10 -17 -17 -16 -13 -17 -12
-4 4 13 16 21 21 21 13z m20 -19 c0 -2 -10 -12 -22 -23 l-23 -19 19 23 c18 21
26 27 26 19z m803 -14 c-7 -2 -19 -2 -25 0 -7 3 -2 5 12 5 14 0 19 -2 13 -5z
m-857 -35 c-6 -25 -18 -48 -27 -48 -5 0 -3 14 6 30 16 31 25 39 21 18z m704
-30 c0 -11 -22 -10 -40 2 -11 8 -9 9 13 8 15 -1 27 -6 27 -10z m19 -32 c7 -8
8 -17 3 -19 -4 -3 -13 3 -20 14 -14 22 0 26 17 5z m36 5 c3 -5 2 -12 -3 -15
-5 -3 -9 1 -9 9 0 17 3 19 12 6z m-804 -24 c-10 -9 -11 -8 -5 6 3 10 9 15 12
12 3 -3 0 -11 -7 -18z m729 13 c8 -5 11 -12 7 -16 -4 -4 -15 0 -24 9 -18 18
-8 23 17 7z m-35 -20 c3 -5 1 -10 -4 -10 -6 0 -11 5 -11 10 0 6 2 10 4 10 3 0
8 -4 11 -10z m-55 -20 c8 -5 11 -10 5 -10 -5 0 -17 5 -25 10 -8 5 -10 10 -5
10 6 0 17 -5 25 -10z m255 0 c3 -5 2 -10 -4 -10 -5 0 -13 5 -16 10 -3 6 -2 10
4 10 5 0 13 -4 16 -10z m-742 -61 c-13 -22 -19 -26 -21 -14 -2 9 5 23 15 30
26 20 26 19 6 -16z m927 16 c11 -13 10 -14 -4 -9 -9 3 -16 10 -16 15 0 13 6
11 20 -6z m-867 -12 c-4 -10 -10 -21 -15 -24 -5 -3 -2 -20 5 -38 l14 -32 19
28 c10 15 18 31 17 35 -2 3 5 12 15 20 15 12 16 11 3 -4 -7 -10 -10 -18 -7
-18 4 0 0 -12 -8 -27 -8 -16 -17 -37 -20 -47 -4 -10 -9 -16 -13 -13 -3 4 -13
1 -21 -6 -13 -10 -14 -8 -8 11 10 32 -2 82 -15 61 -12 -19 -11 -32 1 -24 13 8
13 5 -5 -45 -19 -53 -19 -60 0 -36 11 14 15 16 15 5 1 -11 4 -10 14 4 12 16
14 16 20 2 3 -9 2 -14 -3 -10 -5 3 -14 -7 -19 -22 -7 -19 -11 -22 -11 -10 -1
15 -3 16 -13 5 -21 -21 -42 -67 -35 -75 4 -3 7 1 7 10 0 11 5 14 16 10 13 -5
15 -2 9 15 -4 13 -2 22 4 22 6 0 11 -5 11 -12 0 -11 8 -1 88 107 24 33 45 50
59 51 18 0 20 -2 11 -13 -9 -11 -7 -12 7 -7 12 5 16 4 12 -3 -4 -6 -1 -14 5
-16 9 -4 1 -17 -23 -39 -19 -18 -27 -27 -18 -20 10 8 23 11 30 6 8 -5 10 -3 5
5 -6 8 -2 11 10 9 11 -2 18 2 17 7 0 6 5 16 12 22 11 10 13 9 12 -8 -1 -17
-56 -70 -64 -61 -9 8 -23 0 -23 -13 0 -8 -5 -15 -11 -15 -6 0 -9 -6 -6 -14 3
-7 -4 -21 -14 -30 -11 -9 -17 -21 -14 -26 3 -6 -1 -7 -10 -4 -9 4 -15 3 -13
-2 4 -12 -34 -54 -43 -48 -4 2 -5 -5 -2 -16 6 -22 23 -27 24 -7 0 6 4 3 9 -8
5 -11 9 -14 9 -7 1 6 9 12 18 12 13 0 14 -3 5 -12 -17 -17 -15 -33 2 -19 10 9
16 9 21 1 4 -6 4 -14 1 -17 -3 -4 -6 0 -7 8 0 8 -4 4 -9 -8 -5 -13 -14 -23
-20 -23 -6 0 -8 5 -5 10 10 16 -1 11 -16 -7 -8 -9 -9 -14 -4 -11 18 11 40 -8
28 -24 -6 -7 -14 -24 -17 -38 -5 -18 -5 -21 3 -10 8 12 12 9 20 -13 11 -28 -3
-77 -21 -77 -5 0 -6 5 -2 12 4 7 3 8 -4 4 -9 -5 -8 -12 0 -26 12 -18 13 -17
27 16 10 27 16 32 23 22 7 -9 8 -8 4 5 -3 10 1 25 9 33 13 14 15 13 15 -11 0
-14 -8 -42 -19 -63 -10 -20 -22 -52 -26 -70 -3 -18 -11 -30 -15 -27 -17 10
-60 -100 -59 -150 0 -20 7 -4 20 44 19 72 47 136 36 84 -3 -13 -1 -25 3 -28 5
-3 11 5 13 17 5 27 -1 -27 -9 -79 -3 -23 -2 -33 3 -26 10 14 10 -52 0 -77 -10
-25 -13 -89 -5 -84 9 6 13 -55 9 -126 -1 -25 -3 -61 -4 -82 -1 -20 -5 -40 -9
-44 -5 -4 -8 -12 -8 -18 0 -6 5 -4 10 4 7 11 9 -2 8 -42 -1 -32 -6 -58 -11
-58 -4 0 -7 -6 -6 -12 3 -23 -13 -98 -23 -104 -5 -3 -5 -11 1 -18 11 -13 -20
-161 -38 -179 -18 -18 -13 -29 9 -17 11 6 20 21 20 35 0 13 4 26 8 29 5 3 6
-9 3 -27 -8 -40 -100 -199 -112 -191 -5 3 -6 -1 -3 -9 3 -8 0 -18 -7 -23 -8
-5 -10 -3 -5 7 4 8 -2 3 -13 -10 -12 -12 -19 -27 -16 -31 3 -5 0 -12 -6 -16
-8 -5 -10 -3 -4 7 4 8 -11 -5 -33 -29 -23 -23 -57 -49 -76 -57 -20 -9 -36 -20
-36 -26 0 -5 -4 -7 -10 -4 -5 3 -28 1 -51 -5 -63 -17 -182 -20 -169 -5 8 9 3
11 -17 8 -26 -3 -27 -3 -5 6 12 6 22 13 22 16 0 4 -5 3 -12 -1 -7 -4 -8 -3 -4
4 4 7 14 12 22 12 12 0 12 5 -2 33 l-17 32 27 -24 c24 -23 30 -24 59 -13 19 7
43 12 55 12 12 0 22 4 22 9 0 6 9 8 21 6 27 -5 88 33 122 78 30 40 93 160 102
197 7 24 6 24 -20 -5 l-27 -30 26 37 c23 33 66 120 66 135 0 3 -8 2 -17 -1
-16 -5 -16 -5 -2 6 23 19 44 87 40 132 -2 22 2 42 9 46 6 4 13 27 16 51 3 36
2 40 -6 19 -7 -20 -9 -12 -6 33 2 37 -1 53 -6 45 -11 -15 -6 25 7 55 5 13 2
17 -14 17 -12 0 -22 6 -22 13 -1 6 -5 -1 -9 -18 l-8 -30 0 30 c0 17 3 39 7 50
7 17 9 16 15 -9 7 -27 8 -27 21 -10 7 10 11 23 8 27 -3 5 -9 3 -14 -4 -6 -9
-9 4 -10 36 -1 40 -3 45 -9 25 -4 -14 -9 -20 -10 -15 -1 6 -6 -1 -11 -14 -5
-13 -12 -21 -16 -18 -3 4 2 18 11 32 9 14 15 25 12 25 -2 0 0 16 4 35 4 19 4
35 0 35 -9 0 -23 -39 -21 -57 1 -7 -3 -13 -9 -13 -7 0 -9 19 -6 53 l5 52 -9
-45 c-6 -25 -8 -53 -6 -63 2 -9 0 -14 -6 -11 -8 5 -3 94 8 137 3 9 1 17 -5 17
-6 0 -13 -11 -17 -25 -3 -14 -10 -25 -15 -25 -5 0 -9 -22 -9 -49 0 -28 -4 -52
-9 -55 -5 -4 -7 20 -4 56 7 92 13 328 7 328 -6 0 -44 -63 -44 -73 0 -5 5 -5
12 -1 7 4 8 3 4 -5 -4 -6 -11 -9 -16 -6 -5 3 -11 -3 -13 -12 -2 -10 -2 -2 0
17 3 19 12 47 20 63 11 21 12 32 4 37 -8 4 -9 14 -2 31 l10 24 1 -25 c1 -23 2
-23 10 -5 5 11 9 40 10 65 2 42 3 43 10 15 l8 -30 1 30 c1 17 4 60 8 98 5 58
4 67 -11 67 -9 0 -16 4 -16 10 0 5 6 7 13 4 9 -3 17 10 24 41 6 25 6 45 2 45
-5 0 -9 -8 -9 -18 0 -9 -9 -23 -20 -30 -19 -11 -20 -10 -19 30 1 39 2 40 8 13
l7 -30 5 32 c3 20 2 30 -5 26 -5 -4 -7 0 -4 8 3 8 8 25 12 39 l7 25 -14 -23
c-7 -12 -15 -21 -18 -18 -2 2 -5 -6 -5 -19 -1 -14 -9 -32 -18 -40 -17 -18 -22
-60 -7 -69 5 -4 12 0 14 6 3 8 6 6 6 -4 1 -10 -3 -18 -7 -18 -7 0 -2 -77 13
-185 4 -29 3 -34 -4 -19 -5 11 -12 52 -16 90 -4 38 -13 96 -21 129 -8 37 -10
61 -4 63 6 2 10 12 10 22 0 10 5 22 10 25 6 3 10 15 10 26 0 10 6 18 13 17 8
-2 11 8 10 27 0 17 1 24 4 18 2 -7 8 -13 13 -13 15 0 49 70 44 88 -5 14 -4 15
5 2 7 -10 11 -11 11 -2 0 6 7 12 15 12 14 0 14 -4 1 -35 -9 -20 -11 -37 -5
-40 5 -4 9 -12 8 -18 0 -9 -2 -9 -6 1 -7 18 -20 15 -26 -8 -3 -11 -1 -18 4
-14 14 8 10 -9 -6 -30 -8 -11 -15 -27 -15 -35 1 -11 5 -7 14 8 l14 24 7 -22
c3 -12 3 -27 -3 -34 -5 -7 -8 -23 -7 -37 1 -14 3 -43 4 -65 l3 -40 13 30 c8
17 14 39 14 50 -1 16 -2 16 -10 -5 l-8 -25 2 25 c1 18 7 24 20 22 9 -2 17 2
17 8 0 5 -5 10 -10 10 -6 0 -9 29 -8 73 1 40 -1 78 -5 84 -5 8 -1 11 13 8 19
-4 24 5 21 32 -3 23 39 92 56 93 1 0 -1 -8 -4 -17z m725 -18 c-3 -3 -9 2 -12
12 -6 14 -5 15 5 6 7 -7 10 -15 7 -18z m-708 -15 c-6 -11 -13 -20 -16 -20 -2
0 0 9 6 20 6 11 13 20 16 20 2 0 0 -9 -6 -20z m694 -1 c5 -4 16 -5 25 -2 10 3
12 2 4 -4 -8 -6 -8 -13 3 -27 19 -27 30 -12 17 23 l-10 28 28 -14 c16 -8 29
-20 29 -26 0 -7 -4 -6 -10 3 -5 8 -10 11 -10 7 0 -15 31 -55 48 -62 11 -4 9 1
-7 16 -21 20 -22 23 -7 31 11 6 22 5 32 -3 21 -17 28 -5 9 15 -15 15 -15 16 0
16 9 0 13 5 10 10 -3 6 -2 10 3 10 13 0 43 -35 36 -42 -3 -4 2 -19 12 -35 l18
-28 -26 24 c-15 12 -31 20 -37 17 -6 -4 -20 -2 -31 4 -26 14 -25 2 3 -28 12
-14 16 -22 10 -18 -17 9 -16 -4 1 -26 7 -10 17 -14 21 -10 5 4 5 2 1 -5 -3 -6
2 -16 11 -22 10 -6 13 -11 6 -11 -6 0 -10 -9 -8 -20 5 -24 6 -24 -38 -5 -19 8
-50 17 -68 20 l-34 6 25 -18 c14 -10 34 -19 44 -20 23 -4 32 -11 23 -19 -4 -5
-44 10 -89 33 -4 2 -10 -2 -14 -8 -4 -7 -3 -9 4 -5 6 3 17 0 25 -8 8 -8 26
-18 41 -22 14 -3 26 -13 26 -21 0 -10 -6 -13 -16 -9 -9 3 -21 6 -28 6 -7 0
-22 9 -34 21 -12 11 -27 17 -33 13 -7 -4 -9 0 -5 14 4 13 1 22 -9 26 -9 3 -13
11 -9 17 4 7 0 9 -14 5 -17 -6 -20 -3 -17 13 3 15 0 18 -13 13 -16 -6 -16 -4
0 18 9 14 20 24 25 23 5 -1 9 14 8 34 0 24 -8 41 -25 55 l-24 19 30 -7 c16 -3
33 -10 38 -15z m-28 -47 c1 -7 0 -8 -3 -2 -2 5 -9 8 -14 4 -5 -3 -9 0 -9 6 0
15 23 7 26 -8z m3644 3 c8 -10 13 -89 16 -262 6 -303 21 -765 30 -890 8 -109
11 -108 -101 -68 -56 19 -90 25 -166 25 -137 0 -221 10 -215 25 2 7 -1 18 -7
24 -8 8 -6 11 7 11 13 0 16 5 12 16 -4 12 -2 15 9 10 18 -7 19 -2 4 27 -11 21
-11 21 7 7 35 -28 63 -40 106 -45 l43 -6 -42 23 c-41 21 -61 47 -26 34 9 -4 3
6 -13 22 -16 15 -32 27 -35 25 -3 -1 -4 10 -2 25 2 15 4 47 4 72 0 25 7 78 16
118 l16 73 15 -31 c8 -17 17 -29 19 -26 3 2 0 13 -6 24 -14 27 -14 55 0 46 8
-4 8 0 0 15 -7 11 -14 40 -16 64 -2 24 -11 60 -20 80 -9 22 -13 48 -9 63 4 14
2 29 -3 33 -11 6 -96 199 -107 241 l-7 25 14 -24 c11 -18 16 -21 21 -10 3 8 4
4 2 -8 -2 -13 1 -21 7 -20 6 1 17 -14 24 -33 12 -32 13 -32 8 -5 -15 77 -23
106 -35 120 -7 9 -10 18 -6 22 3 3 6 0 6 -8 0 -12 2 -12 9 0 8 12 13 11 30
-10 11 -13 20 -19 21 -13 0 6 -11 23 -25 38 -14 15 -23 32 -20 37 3 5 -1 6 -9
3 -10 -4 -16 -1 -16 9 0 8 7 18 16 21 8 3 12 2 9 -4 -3 -6 -2 -10 4 -10 16 0
24 21 12 33 -18 18 -12 31 7 15 34 -29 47 -31 20 -2 -26 28 -26 46 0 52 6 1
12 -5 12 -14 0 -8 4 -12 10 -9 5 3 15 -3 22 -15 16 -25 28 -26 21 -1 -4 18 2
20 69 24 40 3 91 9 113 15 61 15 111 14 125 -3z m-3773 -37 c-3 -8 -6 -5 -6 6
-1 11 2 17 5 13 3 -3 4 -12 1 -19z m-312 2 c-3 -5 -11 -10 -16 -10 -6 0 -7 5
-4 10 3 6 11 10 16 10 6 0 7 -4 4 -10z m-85 -100 c0 -5 -5 -10 -11 -10 -5 0
-7 5 -4 10 3 6 8 10 11 10 2 0 4 -4 4 -10z m-40 -53 c0 -2 -9 -12 -20 -22 -24
-21 -27 -14 -4 9 15 15 24 20 24 13z m94 -52 c-9 -14 -18 -25 -21 -25 -5 0 5
18 20 38 17 22 18 13 1 -13z m639 -5 c9 -11 12 -20 6 -20 -5 0 -7 -5 -3 -12 5
-8 2 -9 -10 -5 -14 5 -17 3 -12 -8 4 -11 -1 -15 -17 -15 -13 0 -27 4 -32 9 -6
5 -21 11 -35 14 -20 3 -18 5 10 6 l35 2 -29 15 c-22 13 -26 18 -15 25 26 16
84 10 102 -11z m-790 -5 c-3 -9 -8 -14 -10 -11 -3 3 -2 9 2 15 9 16 15 13 8
-4z m112 -25 c-3 -5 -8 -20 -10 -32 -3 -13 -13 -29 -22 -36 -10 -7 -16 -14
-13 -15 7 -3 -34 -86 -43 -87 -12 0 3 41 20 59 8 7 12 23 9 33 -2 11 -2 17 1
14 9 -9 44 25 37 36 -3 5 0 15 6 23 14 17 24 20 15 5z m-416 -27 c-1 -16 1
-36 5 -45 4 -9 6 -27 3 -40 -3 -16 -5 -13 -6 12 -1 25 -4 31 -10 21 -9 -13 -9
7 -2 67 2 25 12 11 10 -15z m48 -30 c-3 -10 -5 -2 -5 17 0 19 2 27 5 18 2 -10
2 -26 0 -35z m1048 -6 c22 -9 32 -16 23 -16 -19 -1 -98 27 -112 40 -11 10 27
-1 89 -24z m39 25 c2 -4 -4 -8 -14 -9 -11 -1 -22 2 -25 8 -4 5 3 9 14 9 11 0
22 -4 25 -8z m4331 -12 c5 -8 11 -7 21 1 11 9 14 8 14 -5 0 -9 -4 -16 -10 -16
-5 0 -10 -11 -10 -24 0 -21 -43 -76 -60 -76 -4 0 -13 7 -21 16 -10 13 -10 17
1 24 11 7 11 11 1 24 -13 16 -6 21 21 17 4 0 10 10 14 24 6 26 18 32 29 15z
m-5388 -22 c-3 -8 -6 -5 -6 6 -1 11 2 17 5 13 3 -3 4 -12 1 -19z m473 14 c0
-4 -10 -13 -22 -21 -23 -14 -23 -14 -4 8 20 22 26 25 26 13z m-593 -59 c-3
-10 -5 -4 -5 12 0 17 2 24 5 18 2 -7 2 -21 0 -30z m438 -13 c-12 -23 -14 -35
-6 -43 8 -8 11 -5 11 11 0 24 15 29 26 10 4 -7 4 -10 -1 -6 -4 4 -19 -15 -32
-43 -26 -55 -42 -60 -24 -8 6 17 8 36 5 41 -6 10 27 81 34 74 2 -2 -4 -19 -13
-36z m47 -2 c-7 -7 -12 -8 -12 -2 0 14 12 26 19 19 2 -3 -1 -11 -7 -17z m4935
-50 c-3 -7 -5 -2 -5 12 0 14 2 19 5 13 2 -7 2 -19 0 -25z m-5410 0 c-3 -8 -6
-5 -6 6 -1 11 2 17 5 13 3 -3 4 -12 1 -19z m6468 2 c3 -6 -5 -14 -18 -19 -14
-6 -27 -16 -30 -23 -4 -10 -8 -10 -16 2 -8 11 -6 19 10 33 24 19 45 22 54 7z
m-701 -22 c17 -25 13 -38 -13 -38 -28 0 -46 26 -31 45 17 20 26 19 44 -7z
m731 -18 c3 -5 1 -10 -4 -10 -6 0 -11 5 -11 10 0 6 2 10 4 10 3 0 8 -4 11 -10z
m-147 -19 c-7 -9 -17 -22 -23 -29 -40 -51 -104 -110 -108 -100 -4 10 -7 10
-18 1 -10 -10 -17 -9 -36 9 -13 12 -23 29 -23 39 0 23 86 85 114 81 13 -2 17
0 9 5 -7 5 10 9 43 9 48 1 53 -1 42 -15z m-923 -11 c4 -12 24 -32 45 -45 27
-17 39 -32 42 -55 3 -17 1 -33 -4 -36 -5 -3 -6 -9 -3 -14 3 -5 0 -21 -6 -37
-16 -38 -13 -65 11 -108 26 -46 40 -60 120 -120 36 -27 99 -81 141 -119 41
-39 102 -84 135 -100 63 -31 190 -112 200 -127 3 -5 13 -9 23 -9 10 0 34 -11
53 -24 19 -13 51 -26 70 -30 48 -9 61 -26 52 -70 -9 -49 -9 -105 0 -139 5 -22
12 -28 29 -25 18 2 22 9 22 40 0 20 6 43 13 49 16 17 15 48 -3 79 -16 30 -4
50 30 50 12 0 35 12 50 26 28 26 28 26 22 122 -4 54 -12 129 -19 169 -14 83
-7 99 47 109 42 8 44 15 51 189 6 133 8 154 18 144 10 -10 18 -263 23 -746 l5
-511 -24 -16 c-19 -12 -35 -13 -88 -6 -72 10 -346 25 -715 40 -237 10 -431 25
-460 36 -16 6 -18 43 -18 269 1 231 30 744 44 760 5 5 9 -3 9 -19 0 -44 24
-25 32 25 3 24 7 77 7 118 1 109 29 186 46 131z m1145 10 c0 -5 -4 -10 -10
-10 -5 0 -10 5 -10 10 0 6 5 10 10 10 6 0 10 -4 10 -10z m-5456 -22 c-5 -7 -3
-8 7 -2 18 11 91 14 104 4 11 -9 15 -10 46 -10 15 0 19 -4 15 -16 -5 -14 -4
-15 9 -4 12 10 18 10 30 0 8 -7 13 -16 10 -20 -3 -5 4 -6 15 -3 15 4 19 2 15
-10 -4 -8 1 -17 9 -20 9 -4 16 -13 16 -22 0 -8 5 -15 10 -15 6 0 10 -7 10 -15
0 -8 4 -15 8 -15 5 0 15 -12 22 -27 7 -16 15 -23 17 -15 3 6 9 12 14 12 4 0 6
-6 3 -13 -10 -27 17 -68 61 -95 26 -15 45 -34 45 -44 0 -10 5 -18 10 -18 6 0
10 6 10 12 0 7 8 1 17 -12 9 -14 23 -30 31 -36 8 -5 15 -22 15 -37 2 -25 17
-40 17 -16 0 5 5 7 10 4 13 -8 -13 -35 -34 -35 -8 0 -20 -9 -26 -20 -6 -11
-17 -20 -25 -20 -8 0 -15 -4 -15 -10 0 -5 -6 -10 -14 -10 -7 0 -19 -6 -25 -14
-7 -8 -31 -24 -54 -36 -23 -12 -51 -33 -62 -46 -11 -14 -29 -26 -40 -28 -11
-2 -22 -11 -24 -21 -2 -15 2 -17 25 -12 16 3 38 9 49 12 17 6 17 5 4 -4 -21
-13 -366 -101 -394 -100 -17 0 -17 2 5 11 22 10 16 13 -66 31 -68 14 -94 25
-105 41 -10 15 -15 83 -21 246 -4 124 -11 243 -16 266 -6 27 -5 57 3 87 7 26
9 50 6 53 -3 3 3 5 14 4 33 -4 41 0 25 10 -11 7 -8 10 16 10 16 0 36 6 42 12
9 9 15 10 20 2 8 -13 72 -15 72 -2 0 5 4 6 10 3 5 -3 18 -1 27 4 24 14 36 14
27 -1z m-3884 -48 c77 -10 142 -16 560 -50 135 -12 292 -25 350 -31 58 -5 182
-16 275 -24 211 -18 510 -53 550 -63 17 -5 30 -15 30 -23 0 -33 -151 -25 -965
51 -63 6 -236 22 -385 35 -302 28 -310 29 -486 50 -138 16 -159 21 -159 39 0
38 41 40 230 16z m3151 5 c6 13 7 8 2 -15 -22 -116 -22 -116 -18 -55 4 45 2
56 -6 45 -9 -13 -10 -12 -5 3 3 10 7 24 7 30 1 7 4 3 7 -8 l5 -20 8 20z m5639
-40 c0 -8 -6 -15 -14 -15 -8 0 -16 7 -20 15 -4 10 1 15 14 15 11 0 20 -7 20
-15z m-6003 -37 c-3 -8 -6 -5 -6 6 -1 11 2 17 5 13 3 -3 4 -12 1 -19z m6441
-77 c15 -9 15 -17 1 -43 -10 -19 -34 -24 -44 -8 -9 14 5 60 19 60 6 0 17 -4
24 -9z m-6349 -276 c0 -5 -4 -3 -9 5 -5 8 -9 22 -9 30 0 16 17 -16 18 -35z
m-9 -30 c0 -5 -5 -3 -10 5 -5 8 -10 20 -10 25 0 6 5 3 10 -5 5 -8 10 -19 10
-25z m-23 -62 c-2 -16 -4 -5 -4 22 0 28 2 40 4 28 2 -13 2 -35 0 -50z m-2883
25 c4 -23 22 -321 32 -543 3 -66 7 -130 10 -142 6 -29 -5 -73 -18 -73 -6 0 -8
7 -4 15 3 9 0 15 -9 15 -8 0 -12 -6 -9 -14 3 -8 1 -17 -5 -21 -8 -4 -11 32
-11 117 0 68 -4 177 -10 243 -16 182 -28 398 -22 413 7 21 41 14 46 -10z m299
5 c-7 -2 -21 -2 -30 0 -10 3 -4 5 12 5 17 0 24 -2 18 -5z m168 0 c28 -5 30 -7
14 -14 -34 -13 -92 -10 -105 6 -11 13 -7 15 23 15 19 0 49 -3 68 -7z m2472
-48 c-7 -21 -13 -19 -13 6 0 11 4 18 10 14 5 -3 7 -12 3 -20z m73 -130 c-3
-49 -12 -112 -21 -138 -18 -51 -31 -60 -16 -11 12 38 34 245 27 252 -3 3 -6
-2 -6 -11 0 -9 -4 -18 -9 -21 -4 -3 -3 13 3 35 11 40 11 40 18 12 4 -15 6 -68
4 -118z m1349 41 c-71 -23 -134 -55 -169 -85 -19 -16 -19 -16 0 11 22 32 77
61 154 82 84 22 94 17 15 -8z m-1068 -23 c-3 -10 -5 -4 -5 12 0 17 2 24 5 18
2 -7 2 -21 0 -30z m-314 -60 c-10 -61 -23 -95 -17 -43 3 25 8 53 10 63 9 30
13 18 7 -20z m-32 -6 c-8 -8 -11 -7 -11 4 0 20 13 34 18 19 3 -7 -1 -17 -7
-23z m365 -50 l2 -82 -10 67 c-9 57 -7 98 4 98 2 0 4 -37 4 -83z m714 39 c0
-2 -9 -6 -20 -9 -11 -3 -18 -1 -14 4 5 9 34 13 34 5z m57 -64 c13 -14 20 -29
17 -33 -3 -5 2 -9 11 -9 34 0 3 -18 -42 -25 -27 -4 -56 -11 -65 -16 -10 -5
-18 -7 -18 -4 0 3 16 13 36 21 29 12 34 17 24 29 -7 8 -9 15 -4 15 4 0 -3 11
-16 26 -20 21 -22 27 -10 34 16 10 31 1 67 -38z m-313 19 c3 -5 -5 -8 -18 -7
-13 0 -22 4 -19 9 6 10 31 9 37 -2z m-477 -108 c-2 -21 -4 -6 -4 32 0 39 2 55
4 38 2 -18 2 -50 0 -70z m388 87 c-16 -4 -41 -8 -55 -8 -22 0 -22 1 5 8 17 4
41 8 55 8 22 0 22 -1 -5 -8z m-88 -16 c-3 -3 -12 -4 -19 -1 -8 3 -5 6 6 6 11
1 17 -2 13 -5z m-40 -10 c-3 -3 -12 -4 -19 -1 -8 3 -5 6 6 6 11 1 17 -2 13 -5z
m-38 -8 c-2 -1 -19 -8 -36 -14 -37 -12 -45 -6 -10 8 22 9 54 13 46 6z m-3125
-27 c-3 -5 -10 -7 -15 -3 -5 3 -7 10 -3 15 3 5 10 7 15 3 5 -3 7 -10 3 -15z
m3774 -74 c8 -24 12 -78 11 -135 -4 -172 1 -301 11 -320 16 -29 12 -68 -14
-153 -14 -42 -21 -75 -17 -72 5 2 6 -7 3 -20 -5 -27 4 -29 103 -25 60 2 86
-11 100 -53 10 -31 10 -39 -2 -49 -8 -6 -13 -7 -12 -2 8 43 -27 41 -43 -3 -7
-18 -16 -33 -21 -33 -5 0 -7 -7 -3 -15 3 -8 3 -30 -1 -47 -6 -28 -7 -30 -15
-13 -6 16 -7 13 -4 -9 5 -34 -19 -68 -27 -38 -3 9 -5 -1 -6 -23 -1 -29 -4 -36
-10 -25 -6 8 -7 18 -5 22 3 4 1 8 -5 8 -5 0 -12 10 -14 23 -3 16 -5 12 -7 -13
-1 -19 -2 -38 -1 -42 2 -13 -17 -9 -22 5 -3 7 -9 2 -15 -13 -10 -25 -10 -25
-18 10 l-8 35 -8 -30 c-4 -17 -3 -34 2 -39 19 -19 10 -29 -10 -11 -18 16 -21
30 -19 92 1 40 5 73 9 73 4 0 11 7 14 16 4 9 2 13 -5 8 -7 -4 -10 -3 -7 2 41
86 49 107 40 113 -7 4 -8 12 -2 21 15 23 12 34 -5 20 -13 -11 -14 -10 -9 4 5
12 2 15 -10 10 -12 -4 -15 -2 -11 9 4 9 -6 25 -26 41 -21 18 -32 37 -33 55 -1
20 -5 27 -15 23 -9 -3 -5 7 8 25 34 46 44 151 26 278 -13 91 -12 113 0 180 8
42 15 91 15 109 0 41 7 48 45 44 25 -3 32 -9 43 -43z m-3763 -27 c12 -36 11
-43 -5 -43 -10 0 -15 10 -15 33 -1 37 9 42 20 10z m-100 -22 c12 -12 12 -16 0
-26 -11 -9 -16 -7 -24 9 -6 11 -11 22 -11 25 0 11 21 6 35 -8z m2982 -8 c-3
-8 -6 -5 -6 6 -1 11 2 17 5 13 3 -3 4 -12 1 -19z m30 -55 c-3 -10 -5 -2 -5 17
0 19 2 27 5 18 2 -10 2 -26 0 -35z m-3017 -64 c0 -5 -4 -9 -10 -9 -5 0 -10 7
-10 16 0 8 5 12 10 9 6 -3 10 -10 10 -16z m127 9 c11 -16 11 -28 -4 -52 -10
-18 -12 -17 -27 13 -9 17 -14 36 -11 41 9 14 31 12 42 -2z m-99 -46 c3 -9 -2
-13 -14 -10 -9 1 -19 9 -22 16 -3 9 2 13 14 10 9 -1 19 -9 22 -16z m2523 -19
c-12 -20 -14 -14 -5 12 4 9 9 14 11 11 3 -2 0 -13 -6 -23z m-2427 -69 c23 -9
20 -44 -3 -44 -18 0 -35 33 -23 44 7 7 7 7 26 0z m2596 -13 c-5 -11 -15 -23
-22 -27 -7 -5 -8 -2 -3 7 21 37 44 55 25 20z m40 -1 c-6 -11 -13 -20 -16 -20
-2 0 0 9 6 20 6 11 13 20 16 20 2 0 0 -9 -6 -20z m-88 -52 c-7 -7 -12 -8 -12
-2 0 14 12 26 19 19 2 -3 -1 -11 -7 -17z m-2632 -88 c0 -5 -7 -10 -15 -10 -8
0 -15 5 -15 10 0 6 7 10 15 10 8 0 15 -4 15 -10z m90 0 c0 -5 -7 -7 -15 -4 -8
4 -15 8 -15 10 0 2 7 4 15 4 8 0 15 -4 15 -10z m2981 -177 c6 -16 15 -35 19
-43 13 -27 22 -79 15 -90 -4 -7 -20 26 -36 71 -33 96 -32 89 -19 89 6 0 15
-12 21 -27z m-51 -21 c16 -28 16 -62 0 -62 -5 0 -6 7 -3 17 4 10 2 14 -5 9 -6
-3 -14 -2 -17 4 -4 6 -3 10 2 9 20 -4 22 3 7 26 -9 14 -12 25 -8 25 5 0 16
-12 24 -28z m-35 -58 c12 -25 20 -33 25 -24 6 9 11 8 19 -6 11 -18 12 -18 6 2
-3 12 0 26 8 33 11 8 16 5 25 -15 7 -14 12 -34 12 -44 0 -27 24 -25 38 3 10
22 11 21 12 -18 0 -3 9 -20 19 -39 13 -23 16 -37 9 -44 -13 -13 -6 -47 10 -48
6 -1 19 -2 27 -3 17 -1 21 -36 5 -46 -5 -3 -7 -13 -4 -23 5 -13 4 -14 -4 -3
-8 11 -19 4 -56 -35 -25 -27 -46 -52 -46 -56 0 -4 -10 -13 -22 -19 -18 -10
-14 -2 15 34 20 25 37 48 37 52 0 3 7 13 15 21 8 9 15 22 15 29 0 8 -24 -11
-52 -42 -29 -30 -52 -61 -50 -68 2 -10 -51 -65 -63 -65 -3 0 -18 -6 -33 -14
-40 -20 -72 -29 -72 -19 0 5 16 15 37 22 44 16 123 63 123 73 0 4 -6 5 -13 2
-17 -6 -16 22 3 55 11 21 6 19 -30 -12 -24 -20 -51 -37 -60 -37 -9 0 -20 -3
-24 -7 -15 -16 -96 -28 -96 -14 0 6 5 11 11 11 5 0 7 5 4 10 -4 6 6 11 22 11
23 1 24 3 6 6 -19 4 -21 7 -11 29 6 13 15 24 19 24 4 0 10 7 13 16 6 15 4 15
-11 3 -15 -11 -15 -10 1 9 11 12 21 20 24 17 8 -7 44 44 38 54 -4 5 3 33 15
62 11 29 18 62 15 72 -3 14 -2 17 6 9 8 -8 7 -24 -2 -59 -17 -63 -20 -104 -9
-97 6 3 7 15 3 26 -4 15 -3 18 7 13 9 -6 11 -2 7 13 -4 12 -2 22 3 22 14 0 10
74 -6 113 -8 20 -15 39 -15 42 0 13 9 2 25 -31z m-3275 -4 c0 -5 -4 -10 -10
-10 -5 0 -10 5 -10 10 0 6 5 10 10 10 6 0 10 -4 10 -10z m3513 -46 c11 -21 22
-32 29 -28 6 4 8 3 5 -4 -15 -23 -53 2 -48 32 1 4 -4 14 -10 22 -6 8 -7 14 -2
14 5 0 17 -16 26 -36z m-3513 -9 c0 -14 -2 -25 -4 -25 -2 0 -6 11 -8 25 -3 14
-1 25 3 25 5 0 9 -11 9 -25z m3564 9 c3 -8 2 -12 -4 -9 -6 3 -10 10 -10 16 0
14 7 11 14 -7z m-3562 -61 c0 -4 7 -25 16 -46 13 -33 13 -40 1 -48 -10 -6 -11
-11 -3 -16 6 -5 11 -15 11 -23 0 -8 3 -28 6 -45 8 -36 -5 -60 -27 -52 -13 5
-16 26 -16 128 0 67 3 120 6 117 3 -4 6 -10 6 -15z m4351 -3 c-4 -16 0 -20 19
-20 19 0 27 -8 37 -36 11 -30 11 -38 0 -45 -10 -6 -10 -9 -2 -9 7 0 10 -7 6
-15 -8 -22 -15 -12 -34 48 l-17 52 5 -45 c7 -52 -3 -52 -12 0 -3 19 -11 37
-17 41 -11 7 -2 49 12 49 4 0 6 -9 3 -20z m94 -57 c-3 -10 -5 -4 -5 12 0 17 2
24 5 18 2 -7 2 -21 0 -30z m-1241 -38 c-9 -9 -16 -13 -16 -8 0 12 22 34 28 28
2 -2 -3 -11 -12 -20z m621 -60 c-7 -7 -15 -11 -18 -9 -3 1 -11 -12 -17 -30 -7
-18 -24 -38 -37 -44 -14 -7 -28 -19 -31 -27 -4 -8 -10 -15 -15 -15 -11 0 -7
23 5 32 5 3 11 15 12 25 3 17 2 17 -12 -1 -11 -15 -14 -16 -14 -5 0 9 11 26
24 38 14 13 22 29 19 37 -4 10 4 13 31 11 24 -2 37 1 41 12 5 13 8 13 15 2 5
-8 3 -19 -3 -26z m-1987 4 c15 -28 5 -66 -22 -80 -11 -6 -51 -15 -87 -20 -394
-52 -662 -85 -956 -118 -594 -66 -676 -74 -688 -62 -16 16 -20 104 -5 124 13
18 157 39 448 67 63 6 151 15 195 20 103 13 429 45 665 65 102 9 196 17 210
19 14 2 71 4 127 5 94 1 103 -1 113 -20z m1620 -44 c-7 -9 -15 -13 -18 -10 -3
2 1 11 8 20 7 9 15 13 18 10 3 -2 -1 -11 -8 -20z m776 -35 c0 -12 -4 -16 -9
-11 -5 5 -6 14 -3 20 10 15 12 14 12 -9z m-936 7 c0 -2 -15 -16 -32 -33 l-33
-29 29 33 c28 30 36 37 36 29z m997 -22 c8 -8 19 -13 24 -10 5 4 9 1 9 -5 0
-7 7 -5 16 4 17 18 18 18 57 20 15 1 27 -2 27 -7 0 -5 6 -7 13 -4 6 2 22 0 35
-4 14 -5 22 -5 22 2 0 6 6 7 13 2 6 -4 18 -8 26 -8 17 0 28 -25 11 -25 -6 0
-10 -7 -8 -16 2 -9 -5 -18 -14 -20 -10 -2 -24 -6 -30 -8 -7 -2 -23 -7 -35 -11
-25 -8 -35 -28 -26 -52 6 -14 7 -13 14 5 7 19 11 20 38 9 17 -6 31 -15 31 -19
0 -4 6 -5 14 -2 17 7 42 -116 26 -126 -6 -4 -8 -14 -4 -23 7 -19 24 -23 24 -5
0 6 3 8 6 5 4 -4 2 -12 -3 -19 -15 -20 -24 -50 -13 -43 15 9 12 -7 -6 -45 -10
-20 -13 -35 -7 -39 6 -3 7 -15 3 -26 -6 -16 -10 -12 -20 24 -9 35 -9 45 1 52
8 4 10 11 7 15 -4 3 -15 -8 -26 -25 -10 -17 -22 -28 -25 -24 -4 3 -7 -1 -7
-11 0 -10 5 -14 11 -10 8 5 8 1 0 -13 -6 -11 -7 -24 -3 -28 4 -5 -1 -5 -10 -2
-12 4 -20 -2 -27 -21 -11 -26 -11 -26 -6 7 4 29 3 32 -10 21 -9 -7 -14 -18
-11 -25 2 -6 -2 -12 -10 -12 -7 0 -15 6 -18 14 -3 7 -1 13 3 13 5 0 8 8 6 18
-2 9 -4 26 -4 37 -1 17 -3 17 -11 5 -5 -8 -10 -10 -10 -5 0 6 -4 4 -9 -4 -5
-7 -8 -27 -7 -42 1 -16 -1 -29 -6 -29 -4 0 -3 -12 2 -26 6 -14 10 -33 9 -42 0
-9 -6 -3 -12 14 -13 36 -26 30 -45 -21 l-12 -30 6 34 c4 19 12 40 19 47 6 7
11 32 11 57 -1 25 2 43 7 40 4 -2 10 3 13 11 3 9 9 14 13 12 4 -3 12 12 18 32
l11 37 -22 -26 c-16 -19 -27 -24 -37 -18 -10 6 -10 9 -1 9 6 0 12 7 12 16 0 8
5 12 10 9 6 -3 10 -1 10 4 0 6 10 11 23 11 l22 0 -25 20 c-14 11 -20 20 -14
20 7 0 15 8 18 17 6 15 5 15 -13 -1 -11 -10 -23 -27 -26 -37 -9 -28 -23 -23
-17 6 2 14 8 25 13 25 5 0 9 7 9 15 0 17 19 55 36 70 7 5 14 23 17 38 4 26 3
27 -14 11 -10 -9 -21 -25 -24 -35 -4 -11 -11 -19 -17 -19 -6 0 -3 11 6 24 11
18 13 31 7 48 -6 13 -10 19 -11 13 0 -5 -7 1 -15 15 -7 14 -19 25 -27 25 -7 0
-13 5 -13 12 0 7 -7 21 -16 32 -19 21 -34 61 -24 61 4 0 13 -7 22 -15z m-1077
-30 c-7 -8 -21 -15 -32 -15 -10 0 -16 -4 -13 -10 3 -5 4 -10 1 -10 -3 0 -8 4
-11 10 -3 5 9 16 27 24 43 19 43 19 28 1z m801 -40 c-23 -52 -82 -115 -155
-165 -28 -18 -45 -35 -38 -38 7 -2 9 -8 6 -14 -4 -7 -9 -6 -14 2 -5 8 -13 9
-21 4 -19 -11 -59 -14 -59 -4 0 5 16 12 35 16 19 3 35 9 35 13 0 4 11 14 25
21 14 7 25 17 25 22 0 5 -4 6 -10 3 -5 -3 -18 -8 -27 -10 -10 -2 -31 -6 -47
-10 -20 -6 -27 -4 -25 4 3 7 38 24 79 38 61 21 84 36 130 82 31 32 60 65 63
75 4 11 10 16 13 13 3 -3 -4 -26 -15 -52z m-904 29 c-3 -3 -12 -4 -19 -1 -8 3
-5 6 6 6 11 1 17 -2 13 -5z m303 3 c0 -2 -10 -12 -22 -23 l-23 -19 19 23 c18
21 26 27 26 19z m330 -1 c0 -3 -4 -8 -10 -11 -5 -3 -10 -1 -10 4 0 6 5 11 10
11 6 0 10 -2 10 -4z m-435 -31 c-16 -14 -34 -25 -40 -25 -9 0 55 49 65 49 3 0
-8 -11 -25 -24z m626 -11 c-11 -15 -21 -24 -21 -20 0 10 34 55 39 51 2 -2 -6
-16 -18 -31z m-401 6 c0 -5 -2 -10 -4 -10 -3 0 -8 5 -11 10 -3 6 -1 10 4 10 6
0 11 -4 11 -10z m-424 -11 c4 -8 -58 0 -65 7 -3 3 10 3 28 2 18 -1 34 -5 37
-9z m653 -24 c-40 -49 -61 -66 -75 -61 -8 3 -12 2 -9 -3 7 -13 -84 -26 -96
-14 -5 5 10 16 41 27 27 10 50 22 50 28 0 5 4 7 9 3 6 -3 18 3 28 14 16 17 52
31 62 25 1 -2 -3 -10 -10 -19z m870 -85 c0 -23 -1 -23 -9 -5 -5 11 -9 31 -9
45 0 23 1 23 9 5 5 -11 9 -31 9 -45z m-3609 20 c0 -5 -9 -10 -20 -10 -11 0
-20 5 -20 10 0 6 9 10 20 10 11 0 20 -4 20 -10z m3567 -12 c-3 -8 -6 -5 -6 6
-1 11 2 17 5 13 3 -3 4 -12 1 -19z m-3723 6 c20 -8 11 -24 -14 -24 -10 0 -20
-7 -24 -15 -9 -24 -86 -17 -86 7 0 29 79 49 124 32z m3703 -36 c-3 -7 -5 -2
-5 12 0 14 2 19 5 13 2 -7 2 -19 0 -25z m-3947 -7 c0 -15 -11 -20 -57 -26
-102 -12 -108 -12 -108 10 0 17 9 21 55 26 104 11 110 10 110 -10z m73 12 c8
-8 -25 -33 -35 -27 -5 3 -8 12 -8 20 0 14 31 20 43 7z m3645 -38 c-6 -14 -13
-23 -15 -21 -5 5 15 46 22 46 3 0 -1 -11 -7 -25z m312 -1 c0 -8 -4 -12 -10 -9
-5 3 -10 13 -10 21 0 8 5 12 10 9 6 -3 10 -13 10 -21z m-4251 2 c22 -14 1 -23
-53 -24 -51 0 -54 1 -43 18 8 14 21 18 48 16 20 -2 41 -6 48 -10z m4218 -28
c-3 -7 -5 -2 -5 12 0 14 2 19 5 13 2 -7 2 -19 0 -25z m20 -20 c-3 -8 -6 -5 -6
6 -1 11 2 17 5 13 3 -3 4 -12 1 -19z m-257 -32 c0 -3 -4 -8 -10 -11 -5 -3 -10
-1 -10 4 0 6 5 11 10 11 6 0 10 -2 10 -4z m-52 -41 c-3 -3 -9 2 -12 12 -6 14
-5 15 5 6 7 -7 10 -15 7 -18z m283 -6 c-5 -13 -10 -19 -10 -12 -1 15 10 45 15
40 3 -2 0 -15 -5 -28z m-456 -41 l14 -33 1 27 c0 21 4 26 16 21 12 -4 15 -14
11 -39 -6 -38 1 -76 14 -68 5 3 9 -4 9 -16 0 -12 4 -19 9 -16 5 3 11 -4 14
-15 3 -12 10 -18 15 -15 5 3 7 -6 4 -19 l-4 -24 -19 22 c-10 12 -18 17 -19 10
0 -6 5 -15 10 -18 6 -3 10 -11 10 -16 0 -6 -5 -7 -12 -3 -7 4 -8 3 -4 -4 4 -6
13 -9 22 -5 9 3 14 0 12 -7 -5 -20 20 -23 26 -3 3 10 4 6 2 -9 -4 -32 1 -34
26 -11 12 10 18 12 18 4 0 -7 4 -10 9 -7 5 4 6 -4 3 -16 -5 -19 -7 -20 -10 -5
-2 9 -8 17 -14 17 -6 0 -8 -12 -4 -30 4 -23 0 -36 -16 -52 -19 -19 -20 -28
-15 -98 3 -42 11 -89 17 -104 5 -15 10 -42 10 -60 0 -21 9 -43 24 -59 16 -17
22 -33 19 -47 -3 -11 -1 -26 5 -33 5 -6 12 -60 15 -118 4 -58 9 -123 12 -145
28 -208 41 -292 45 -304 1 -3 2 -9 1 -14 -1 -4 6 -34 15 -65 9 -31 17 -60 18
-66 1 -5 5 -16 10 -23 4 -7 5 -19 2 -27 -3 -8 -1 -15 4 -15 8 0 33 -90 36
-130 1 -8 4 -24 9 -35 4 -11 13 -37 21 -58 8 -20 14 -40 15 -45 1 -4 5 -17 10
-30 5 -13 9 -26 9 -30 0 -4 14 -43 30 -86 17 -43 28 -82 24 -87 -3 -5 -1 -9 4
-9 5 0 15 -15 22 -32 7 -18 18 -46 25 -63 36 -82 94 -248 90 -255 -3 -5 0 -10
5 -12 6 -2 12 -10 14 -18 2 -8 6 -22 9 -30 19 -47 48 -130 47 -136 -1 -4 3
-10 10 -14 6 -4 13 -13 14 -21 2 -8 6 -22 10 -31 4 -9 9 -23 10 -31 1 -8 7
-21 13 -28 6 -8 16 -32 23 -54 7 -22 17 -45 22 -52 12 -15 -4 -24 -22 -12 -8
5 -10 9 -5 9 7 0 7 3 0 8 -17 12 -36 52 -30 62 4 6 1 10 -5 10 -7 0 -9 7 -6
16 3 8 2 13 -3 10 -11 -7 -23 22 -15 35 3 5 1 9 -4 9 -14 0 -65 136 -57 151 5
7 4 10 -2 6 -10 -6 -79 148 -77 171 1 6 -1 12 -5 12 -4 0 -13 17 -20 38 -7 20
-46 123 -86 227 -66 171 -99 271 -190 573 -16 50 -33 92 -38 92 -6 0 -7 -3 -4
-6 3 -4 2 -15 -3 -25 -7 -12 -6 -20 2 -25 6 -4 8 -3 4 4 -3 6 -3 13 1 15 5 3
9 -43 9 -102 1 -58 9 -146 18 -195 10 -48 15 -91 12 -94 -4 -3 -6 5 -6 17 0
12 -4 20 -8 17 -4 -3 -14 39 -21 92 -7 53 -14 108 -17 122 -2 14 -6 76 -9 138
-2 62 -6 116 -9 120 -9 14 -38 226 -42 307 -17 303 -23 373 -32 395 -32 82
-56 219 -46 268 3 16 -1 50 -10 76 -9 25 -15 50 -15 54 1 4 1 14 0 22 -1 13
-2 13 -11 0 -8 -12 -10 -12 -10 -1 0 8 8 20 18 28 9 8 11 11 3 7 -11 -5 -13
-2 -9 14 7 24 -16 32 -25 10 -3 -7 -6 -3 -6 10 -1 12 3 22 8 22 14 0 1 38 -15
44 -17 6 -19 -39 -4 -78 6 -18 5 -33 -4 -50 -15 -29 -26 -24 -26 11 0 14 -4
22 -10 18 -6 -4 -8 -16 -4 -28 10 -32 6 -128 -10 -252 -6 -45 -14 -106 -32
-265 -7 -59 -9 -115 -14 -305 l-3 -120 -8 95 c-9 109 -3 386 11 540 11 129 14
307 5 337 -4 13 -11 20 -16 17 -5 -3 -7 -10 -4 -15 4 -5 2 -9 -3 -9 -14 0 -93
-161 -103 -212 -5 -23 -14 -72 -19 -108 -5 -36 -14 -85 -20 -110 -6 -25 -14
-60 -17 -78 -3 -18 -9 -35 -14 -38 -5 -3 -9 -18 -9 -34 0 -16 -4 -40 -9 -54
-19 -49 -44 -259 -40 -336 8 -167 -4 -275 -31 -275 -9 0 -18 16 -23 44 -5 24
-18 57 -29 72 -12 16 -18 35 -14 44 7 20 -13 43 -35 38 -22 -6 -93 76 -107
126 -10 33 -9 59 8 156 12 64 19 119 16 122 -10 11 -110 -37 -163 -79 -31 -24
-56 -52 -60 -67 -3 -14 -13 -37 -22 -50 -12 -20 -15 -53 -13 -175 2 -181 1
-173 13 -213 6 -17 12 -58 15 -91 2 -33 11 -76 20 -97 8 -20 13 -39 11 -41 -2
-2 -19 12 -37 32 -34 38 -45 35 -50 -11 -4 -29 11 -104 21 -111 5 -3 9 -14 9
-25 0 -29 -14 -16 -43 39 -29 55 -47 115 -56 187 -5 41 -10 50 -29 55 -13 3
-31 17 -39 32 -16 25 -15 29 20 101 41 84 48 123 20 113 -9 -4 -36 -10 -60
-13 -51 -7 -79 -31 -106 -92 -33 -76 -34 -162 -2 -267 36 -114 74 -198 117
-260 34 -48 95 -210 84 -222 -3 -3 -6 1 -6 9 0 29 -100 219 -136 259 -40 44
-58 50 -69 23 -11 -26 -26 -104 -26 -133 0 -46 -9 -58 -24 -30 -25 45 -28 103
-10 171 32 115 31 125 -6 160 -27 25 -39 30 -63 25 -68 -14 -107 -84 -114
-207 -3 -54 0 -100 8 -123 18 -54 29 -202 14 -182 -6 9 -16 16 -22 16 -14 0
-5 -28 17 -54 32 -38 -22 0 -87 62 l-63 60 -69 -3 c-65 -3 -69 -3 -58 15 7 10
29 29 51 42 78 47 97 69 148 177 92 195 114 234 160 285 25 28 50 62 54 76 35
120 132 232 231 268 71 26 75 29 99 97 26 70 80 149 129 190 47 38 134 82 183
91 18 3 36 11 41 18 5 6 26 60 46 119 53 159 88 221 176 312 42 44 99 114 125
155 27 41 52 77 56 80 3 3 14 21 24 40 21 42 35 52 51 39 8 -6 14 -5 18 6 8
22 15 19 31 -17z m-3815 -37 c0 -8 -119 -31 -160 -31 -42 0 -40 27 3 33 48 6
157 5 157 -2z m4257 -23 c-3 -7 -5 -2 -5 12 0 14 2 19 5 13 2 -7 2 -19 0 -25z
m146 -13 c-3 -9 -8 -14 -10 -11 -3 3 -2 9 2 15 9 16 15 13 8 -4z m-439 -4 c3
-5 -1 -11 -9 -14 -9 -4 -12 -1 -8 9 6 16 10 17 17 5z m372 -98 c-8 -15 -15
-25 -16 -21 0 12 23 58 27 54 3 -2 -2 -17 -11 -33z m44 13 c0 -3 -4 -8 -10
-11 -5 -3 -10 -1 -10 4 0 6 5 11 10 11 6 0 10 -2 10 -4z m-250 -56 c0 -11 -4
-20 -9 -20 -5 0 -7 9 -4 20 3 11 7 20 9 20 2 0 4 -9 4 -20z m1028 -67 c-2 -12
4 -19 20 -21 23 -4 31 13 10 21 -7 2 -11 7 -8 10 3 3 21 -1 40 -9 19 -9 37
-15 39 -14 2 1 10 -11 17 -27 35 -77 135 -130 168 -89 6 8 25 17 41 20 63 13
131 -61 142 -156 5 -40 3 -51 -13 -63 -34 -26 -77 -18 -113 19 -28 29 -64 46
-106 50 -5 1 -14 4 -20 7 -5 4 -37 3 -70 -1 -74 -8 -104 1 -173 53 -99 75
-146 177 -78 169 21 -3 26 -1 20 10 -6 11 -5 11 8 0 13 -10 16 -9 21 7 2 11
15 21 28 24 13 2 25 5 27 6 2 0 2 -7 0 -16z m-1140 -30 c15 -33 15 -43 1 -43
-6 0 -9 6 -6 13 2 6 -5 17 -17 24 -12 7 -15 12 -8 13 7 0 10 5 7 10 -3 6 -3
10 2 10 4 0 14 -12 21 -27z m52 -53 c0 -5 -4 -10 -9 -10 -6 0 -13 5 -16 10 -3
6 1 10 9 10 9 0 16 -4 16 -10z m967 -90 c9 -33 43 -90 55 -90 5 0 6 -10 3 -22
-6 -17 -4 -20 9 -15 13 5 19 -1 15 -15 0 -2 5 -16 11 -33 l11 -29 -22 19 c-48
43 -99 119 -115 170 -10 30 -21 55 -26 55 -4 0 -8 12 -8 28 l1 27 30 -35 c16
-19 33 -46 36 -60z m-751 -22 c-11 -7 -26 9 -26 30 0 8 6 6 18 -5 11 -12 14
-21 8 -25z m725 -63 c28 -62 51 -92 107 -139 31 -27 47 -46 39 -49 -9 -4 -9
-8 1 -15 11 -7 11 -10 -3 -15 -11 -5 -14 -3 -9 5 5 8 2 9 -9 5 -12 -5 -17 -1
-17 13 0 11 -3 19 -8 18 -4 -2 -18 7 -31 19 -12 11 -31 23 -41 26 -14 4 -18
-1 -16 -22 1 -14 5 -37 10 -51 4 -16 2 -38 -7 -59 l-14 -33 -11 43 c-11 47
-26 334 -16 309 4 -8 15 -33 25 -55z m-72 -77 c2 -95 16 -250 40 -453 9 -70
27 -203 72 -520 6 -44 22 -135 35 -202 27 -138 28 -147 14 -138 -5 3 -10 14
-10 23 0 9 -7 30 -15 46 -8 15 -13 31 -11 35 2 3 -2 40 -9 81 -33 201 -74 476
-85 575 -10 97 -28 220 -60 432 -20 126 -19 220 1 207 5 -3 9 2 9 11 0 9 4 14
8 11 4 -3 9 -51 11 -108z m-114 33 c0 -62 -9 -87 -18 -51 -3 11 -1 18 4 14 5
-3 9 -1 9 5 0 5 -5 13 -10 16 -11 7 1 75 13 75 1 0 2 -27 2 -59z m-385 19 c0
-5 -2 -10 -4 -10 -3 0 -8 5 -11 10 -3 6 -1 10 4 10 6 0 11 -4 11 -10z m-383
-66 c2 -27 9 -56 14 -66 12 -23 11 -28 -6 -28 -9 0 -15 9 -15 24 0 14 -3 27
-7 29 -7 5 -8 30 -4 84 2 30 12 6 18 -43z m363 1 c0 -8 -4 -15 -9 -15 -5 0
-11 7 -15 15 -3 9 0 15 9 15 8 0 15 -7 15 -15z m413 -55 c3 -11 1 -20 -4 -20
-5 0 -9 9 -9 20 0 11 2 20 4 20 2 0 6 -9 9 -20z m217 -20 c0 -5 -4 -10 -10
-10 -5 0 -10 5 -10 10 0 6 5 10 10 10 6 0 10 -4 10 -10z m14 -56 c3 -8 2 -12
-4 -9 -6 3 -10 10 -10 16 0 14 7 11 14 -7z m-974 -84 c0 -5 -5 -10 -11 -10 -5
0 -7 5 -4 10 3 6 8 10 11 10 2 0 4 -4 4 -10z m949 -40 c0 -10 -3 -8 -9 5 -12
27 -12 43 0 25 5 -8 9 -22 9 -30z m681 -196 c-55 -115 -104 -216 -109 -224 -4
-8 -68 -132 -141 -275 -73 -143 -145 -282 -160 -310 -15 -27 -31 -60 -35 -73
-4 -13 -27 -44 -51 -70 -49 -53 -61 -105 -25 -117 27 -8 35 -35 11 -35 -13 0
-18 -5 -14 -15 5 -11 -1 -15 -19 -15 -13 0 -29 -6 -35 -13 -15 -18 -41 -97
-32 -97 5 0 10 6 12 12 3 8 9 4 17 -10 6 -12 22 -23 34 -23 18 -1 19 -2 4 -6
-13 -3 -17 -11 -14 -24 3 -10 1 -22 -4 -25 -15 -9 -10 -42 7 -52 22 -12 51 -4
59 15 10 28 -5 53 -31 53 -15 0 -23 4 -19 10 4 6 11 8 16 5 5 -4 9 -2 9 3 0 5
11 14 23 21 13 7 24 19 24 27 0 17 -3 17 -27 4 -16 -9 -17 -7 -6 15 6 14 16
25 23 25 6 0 13 8 15 18 3 14 6 13 17 -7 7 -13 9 -26 5 -30 -5 -3 -10 -15 -12
-26 -2 -11 -9 -29 -16 -40 -14 -22 -7 -50 26 -111 41 -74 67 -31 28 45 -18 35
-18 51 0 51 4 0 15 -35 25 -77 10 -43 27 -94 38 -113 l20 -35 -25 23 c-21 19
-29 21 -44 12 -15 -9 -18 -21 -15 -57 2 -25 -2 -50 -8 -56 -8 -8 -11 4 -11 46
0 31 -3 57 -7 57 -18 -1 -32 -17 -36 -45 -3 -26 -4 -25 -6 9 -1 38 -1 39 -21
21 -12 -11 -21 -32 -22 -54 -1 -31 -2 -28 -7 14 -7 57 4 75 44 67 35 -6 115
17 109 32 -2 6 -14 13 -26 13 -20 2 -26 7 -46 41 -12 19 -36 6 -52 -31 -11
-25 -15 -28 -18 -13 -2 10 2 22 9 27 10 6 8 8 -7 7 -16 -2 -20 -7 -16 -27 l3
-26 -13 25 c-7 14 -24 27 -37 28 l-24 4 27 -45 c26 -45 38 -136 16 -122 -5 3
-10 29 -10 58 0 65 -12 53 -39 -40 -12 -40 -25 -73 -30 -73 -20 0 -18 16 4 55
14 23 25 53 24 66 -1 23 -1 23 -14 -6 -16 -34 -20 -19 -5 19 6 17 6 26 -1 26
-6 0 -6 7 1 20 9 17 8 19 -7 13 -15 -5 -15 -2 3 16 l21 23 -23 23 c-28 28 -30
45 -9 85 11 21 13 46 9 92 -5 59 -4 61 10 38 8 -14 11 -27 7 -30 -5 -3 -5 -14
-1 -25 10 -25 16 -11 25 58 3 26 11 47 16 47 6 0 7 -5 3 -12 -4 -7 -3 -8 4 -4
7 4 12 11 12 17 0 15 -32 10 -53 -8 -16 -14 -19 -15 -15 -3 2 8 20 25 39 38
47 32 56 63 30 106 -12 18 -21 37 -21 42 0 5 9 -6 20 -23 11 -18 22 -33 25
-33 19 0 67 79 156 255 56 110 105 205 109 210 4 6 90 173 190 373 100 200
184 362 186 359 2 -2 -41 -98 -96 -213z m-3454 47 c9 -17 9 -30 1 -52 -15 -39
-30 -37 -46 6 -21 60 18 101 45 46z m-122 -7 c14 -37 0 -84 -26 -84 -14 0 -30
52 -23 77 6 27 40 31 49 7z m-2194 -4 c-8 -5 -26 -10 -40 -10 -20 0 -22 2 -10
10 8 5 26 10 40 10 20 0 22 -2 10 -10z m926 -44 c13 -10 23 -11 32 -4 23 19
482 -23 523 -48 15 -9 10 -33 -8 -42 -10 -6 -43 -13 -73 -17 -30 -4 -65 -15
-78 -23 -20 -13 -30 -13 -54 -4 -23 8 -36 8 -52 0 -11 -7 -48 -15 -81 -19 -33
-4 -68 -10 -77 -14 -14 -5 -18 -2 -18 14 0 26 -14 27 -40 1 -16 -16 -28 -18
-70 -13 -28 3 -53 10 -56 14 -2 4 -11 6 -18 3 -7 -3 -16 2 -19 10 -4 9 -16 16
-27 16 -11 0 -20 5 -20 10 0 6 -7 10 -15 10 -8 0 -15 -7 -15 -15 0 -8 -4 -15
-10 -15 -5 0 -10 7 -10 15 0 8 -4 15 -10 15 -5 0 -10 -5 -10 -11 0 -12 -29
-38 -41 -39 -4 0 -9 8 -12 19 -5 22 -53 26 -61 5 -6 -16 -42 -19 -51 -3 -10
16 36 51 60 45 11 -2 39 -1 63 3 24 5 45 5 48 -1 3 -5 12 -4 20 3 11 9 14 8
14 -2 0 -7 7 -3 16 9 9 13 13 26 10 30 -6 5 97 60 115 62 3 0 14 -6 25 -14z
m-696 -57 c6 -9 3 -20 -9 -32 -18 -18 -22 -18 -117 -2 -55 9 -101 18 -103 21
-2 2 1 10 7 17 16 19 210 16 222 -4z m3547 -21 c-3 -8 -6 -5 -6 6 -1 11 2 17
5 13 3 -3 4 -12 1 -19z m0 -40 c-3 -8 -6 -5 -6 6 -1 11 2 17 5 13 3 -3 4 -12
1 -19z m-3377 3 c0 -6 -4 -12 -9 -15 -13 -8 -42 4 -35 15 7 12 44 12 44 0z
m110 -6 c0 -8 -7 -15 -15 -15 -16 0 -20 12 -8 23 11 12 23 8 23 -8z m-584 -45
c0 -25 -11 -28 -116 -32 -76 -3 -85 -1 -88 16 -4 17 1 18 50 12 35 -4 68 -2
98 8 25 8 47 14 50 15 3 1 6 -8 6 -19z m6961 -132 c-3 -7 -5 -2 -5 12 0 14 2
19 5 13 2 -7 2 -19 0 -25z m21 -76 c5 -30 6 -50 2 -45 -8 9 -25 111 -17 103 3
-3 10 -29 15 -58z m177 -123 c2 -11 -5 -29 -15 -39 -23 -23 -26 -40 -7 -40 8
0 7 -3 -3 -10 -11 -7 -12 -12 -3 -21 8 -8 8 -21 -2 -50 -11 -30 -11 -39 -2
-40 9 0 9 -2 -1 -6 -6 -2 -9 -9 -6 -15 4 -6 0 -14 -7 -19 -9 -5 -10 -9 -2 -9
6 0 9 -8 6 -19 -3 -13 -11 -18 -21 -14 -13 4 -13 2 2 -9 18 -14 18 -15 -4 -21
l-22 -6 7 125 c7 132 25 222 47 235 14 9 27 -8 33 -42z m-3915 -58 c0 -5 3
-18 7 -28 6 -16 5 -16 -10 -4 -19 15 -23 41 -7 41 6 0 10 -4 10 -9z m-80 -116
c0 -8 -9 -15 -20 -15 -11 0 -20 7 -20 15 0 8 9 15 20 15 11 0 20 -7 20 -15z
m1027 -57 c-3 -8 -6 -5 -6 6 -1 11 2 17 5 13 3 -3 4 -12 1 -19z m12 -150 c1
-21 -3 -38 -8 -38 -5 0 -9 39 -9 88 0 78 1 82 8 37 5 -27 9 -67 9 -87z m-3264
22 c3 -6 -1 -13 -10 -16 -19 -8 -30 0 -20 15 8 14 22 14 30 1z m4305 -9 c0 -5
3 -18 7 -28 6 -17 6 -17 -10 -1 -19 18 -22 38 -7 38 6 0 10 -4 10 -9z m-4100
-11 c0 -5 -4 -10 -10 -10 -5 0 -10 5 -10 10 0 6 5 10 10 10 6 0 10 -4 10 -10z
m-464 -75 c-7 -38 -38 -54 -61 -35 -23 19 -18 40 16 73 29 27 33 28 41 13 6
-10 7 -33 4 -51z m-226 36 c0 -11 -12 -23 -31 -31 -38 -16 -55 -3 -33 28 19
28 64 30 64 3z m-150 3 c0 -12 -21 -44 -29 -44 -10 0 -21 37 -13 44 7 8 42 8
42 0z m569 -3 c21 -13 5 -41 -23 -41 -32 0 -40 14 -20 34 18 18 24 19 43 7z
m-749 -23 c0 -19 -31 -47 -46 -41 -14 5 -19 35 -7 46 11 12 53 8 53 -5z m650
3 c0 -12 -40 -41 -57 -41 -20 0 -15 38 5 43 31 8 52 7 52 -2z m1566 -21 c8 0
14 -4 14 -10 0 -5 -18 -10 -39 -10 -38 0 -39 1 -28 24 9 20 13 21 25 10 7 -8
20 -14 28 -14z m-1361 10 c-3 -5 -13 -10 -21 -10 -8 0 -14 5 -14 10 0 6 9 10
21 10 11 0 17 -4 14 -10z m126 -23 c-1 -12 -15 -9 -19 4 -3 6 1 10 8 8 6 -3
11 -8 11 -12z m-1041 -51 c0 -16 -21 -26 -55 -26 -26 0 -40 14 -30 30 10 16
85 13 85 -4z m280 -27 c15 -24 -11 -28 -125 -22 -110 6 -133 12 -120 32 10 17
234 8 245 -10z m188 -20 c-2 -6 -23 -18 -47 -26 -46 -16 -69 -7 -58 21 8 19
111 24 105 5z m4897 -43 c31 -40 41 -68 49 -136 4 -40 3 -50 -4 -38 -6 9 -13
36 -16 60 -7 52 -34 110 -54 117 -13 4 -13 2 0 -15 14 -18 14 -18 -2 -5 -11 8
-28 11 -43 7 -15 -4 -25 -2 -25 4 0 6 5 8 10 5 6 -3 10 -1 10 4 0 6 10 11 23
12 l22 0 -22 9 c-31 12 -29 18 2 12 14 -2 37 -19 50 -36z m-1171 19 c3 -8 1
-15 -4 -15 -6 0 -10 7 -10 15 0 8 2 15 4 15 2 0 6 -7 10 -15z m2719 -30 c-7
-21 -12 -19 -10 4 0 11 5 18 9 15 4 -3 5 -11 1 -19z m-4833 0 c0 -8 -6 -15
-13 -15 -8 0 -22 -9 -33 -21 -19 -21 -19 -21 18 -18 41 4 61 -7 32 -17 -32
-12 -58 -44 -46 -56 7 -7 8 -17 2 -29 -7 -11 -7 -20 0 -24 14 -9 12 -25 -3
-25 -13 0 -92 -58 -176 -128 -50 -43 -65 -46 -36 -8 8 11 15 30 15 42 0 33 40
124 78 177 33 46 134 137 153 137 5 0 9 -7 9 -15z m2117 -77 c-3 -7 -5 -2 -5
12 0 14 2 19 5 13 2 -7 2 -19 0 -25z m2688 22 c3 -5 1 -10 -4 -10 -6 0 -11 5
-11 10 0 6 2 10 4 10 3 0 8 -4 11 -10z m-2674 -206 c-1 -81 -4 -150 -6 -153
-3 -2 -5 67 -5 154 0 87 3 156 6 153 3 -4 5 -73 5 -154z m-3733 106 c84 -11
155 -20 157 -20 3 0 5 -7 5 -16 0 -15 -10 -16 -82 -11 -103 7 -432 54 -473 67
-49 16 221 2 393 -20z m6393 3 c13 -16 12 -17 -3 -4 -10 7 -18 15 -18 17 0 8
8 3 21 -13z m-6 -23 c3 -5 1 -10 -4 -10 -6 0 -11 5 -11 10 0 6 2 10 4 10 3 0
8 -4 11 -10z m-1600 -20 c3 -5 3 -15 -1 -21 -6 -11 -23 6 -24 24 0 10 18 9 25
-3z m1588 -48 c-3 -23 -10 -42 -15 -42 -12 0 -7 73 6 82 15 10 15 7 9 -40z
m-6776 -54 c-3 -8 -6 -5 -6 6 -1 11 2 17 5 13 3 -3 4 -12 1 -19z m333 -17
c266 -46 330 -58 397 -75 33 -9 71 -16 84 -16 13 -1 38 -7 54 -14 l30 -13 -33
-17 c-19 -10 -44 -19 -55 -22 -97 -18 -161 -34 -362 -89 -226 -62 -339 -83
-350 -64 -4 5 1 9 10 9 9 0 13 5 10 10 -3 6 1 10 9 10 8 0 22 7 30 16 9 8 16
13 16 11 0 -3 30 5 68 18 37 13 87 29 111 35 87 23 29 21 -96 -4 -174 -34
-203 -35 -203 -12 0 15 103 76 127 76 8 0 11 5 8 11 -4 6 -13 8 -20 5 -7 -2
-21 1 -31 9 -17 12 -16 14 16 28 l35 15 -50 2 c-60 2 -97 8 -106 18 -4 4 -10
27 -14 51 l-7 44 73 -6 c41 -4 153 -20 249 -36z m1845 24 c68 -18 150 -57 182
-87 21 -20 21 -22 5 -34 -9 -7 -20 -10 -24 -8 -4 3 -17 0 -28 -6 -23 -13 -26
-42 -5 -60 12 -10 11 -15 -11 -38 -13 -15 -22 -32 -20 -39 3 -7 -7 -21 -21
-33 -14 -11 -21 -20 -14 -20 6 0 11 -9 11 -20 0 -18 -11 -25 -34 -21 -5 1 -6
-5 -3 -14 4 -9 1 -15 -9 -15 -8 0 -22 -7 -30 -14 -13 -13 -20 -13 -57 0 -45
16 -158 21 -179 8 -7 -5 -21 -7 -31 -6 -9 2 -20 -4 -23 -12 -3 -9 -10 -16 -16
-16 -5 0 -6 5 -3 10 11 18 -118 -15 -138 -35 -8 -8 -17 -11 -20 -8 -4 3 -22
-4 -41 -15 l-35 -20 6 21 c3 12 8 43 10 70 4 38 2 47 -11 47 -18 0 -21 11 -5
27 5 5 16 37 24 69 7 32 21 72 29 89 39 74 159 162 252 184 62 14 175 12 239
-4z m3061 -8 c8 3 14 1 14 -5 0 -12 -24 -22 -48 -21 -11 0 -12 2 -4 6 6 2 13
14 13 26 1 16 2 18 6 5 2 -10 10 -15 19 -11z m-103 -7 c3 -11 3 -20 1 -20 -2
0 -8 9 -14 20 -6 11 -7 20 -2 20 6 0 12 -9 15 -20z m1634 4 c-3 -3 -12 -4 -19
-1 -8 3 -5 6 6 6 11 1 17 -2 13 -5z m-7 -24 c0 -5 -4 -10 -10 -10 -5 0 -10 5
-10 10 0 6 5 10 10 10 6 0 10 -4 10 -10z m0 -31 c0 -5 -4 -7 -10 -4 -5 3 -10
1 -10 -4 0 -6 4 -11 9 -11 4 0 6 -11 3 -25 -3 -20 -7 -23 -18 -14 -7 6 -11 17
-8 25 2 8 6 21 9 29 5 17 25 21 25 4z m-1435 -9 c3 -6 10 -31 15 -58 4 -26 11
-58 15 -72 6 -24 6 -24 -7 -5 -7 11 -18 43 -24 70 -10 42 -12 45 -13 18 -1
-40 -21 -55 -21 -16 0 57 18 90 35 63z m-88 -82 c-2 -13 -4 -3 -4 22 0 25 2
35 4 23 2 -13 2 -33 0 -45z m1513 0 c0 -13 -23 -5 -28 10 -2 7 2 10 12 6 9 -3
16 -11 16 -16z m-6620 -12 c0 -3 -4 -8 -10 -11 -5 -3 -10 -1 -10 4 0 6 5 11
10 11 6 0 10 -2 10 -4z m6609 -40 c-1 -21 -3 -24 -6 -11 -3 11 -9 24 -14 30
-14 14 -11 25 6 19 9 -4 15 -18 14 -38z m-5273 19 c17 -13 16 -14 -15 -5 -41
11 -51 20 -25 20 11 0 29 -7 40 -15z m5250 -31 c-3 -7 -1 -16 5 -20 10 -6 3
-78 -9 -99 -3 -5 -7 -18 -7 -28 -1 -10 -6 -22 -11 -25 -5 -4 -9 -17 -8 -30 1
-12 -3 -25 -8 -28 -4 -3 -6 -10 -3 -15 4 -5 2 -9 -3 -9 -6 0 -8 -9 -5 -20 3
-13 0 -20 -8 -20 -11 0 -11 -2 1 -10 9 -6 11 -10 3 -10 -7 0 -10 -7 -7 -15 4
-8 1 -15 -5 -15 -6 0 -8 -7 -4 -17 4 -9 2 -14 -3 -10 -6 3 -9 -9 -9 -29 1 -19
-1 -34 -4 -34 -3 0 -7 -12 -8 -27 0 -15 -6 -29 -12 -31 -6 -2 -9 -8 -5 -13 3
-5 1 -9 -3 -9 -5 0 -10 -16 -11 -37 -2 -20 -12 -59 -23 -87 -46 -111 -58 -146
-97 -271 -46 -146 -71 -241 -74 -278 -1 -14 17 -66 41 -115 23 -50 41 -99 39
-109 -2 -11 -16 12 -33 56 -16 41 -44 90 -62 109 -37 39 -38 42 -19 42 9 0 17
25 26 78 13 83 19 106 115 407 35 110 72 229 81 265 9 36 22 74 27 85 6 11 12
29 13 40 8 66 59 252 72 263 11 8 12 12 3 12 -9 0 -11 7 -6 23 4 12 7 30 6 40
0 9 5 15 10 11 6 -3 8 -12 5 -20z m-2106 -105 c0 -18 2 -24 10 -34 5 -6 18
-33 29 -62 15 -40 17 -51 6 -47 -8 3 -11 12 -8 21 4 11 2 14 -5 9 -11 -6 -17
5 -13 27 0 4 -4 7 -10 7 -5 0 -8 4 -5 9 4 5 3 11 -1 13 -5 1 -16 17 -25 33
-16 30 -16 31 3 32 10 1 19 -2 19 -8z m-4383 -25 c-3 -3 -12 -4 -19 -1 -8 3
-5 6 6 6 11 1 17 -2 13 -5z m878 -44 c0 -8 -10 -16 -22 -18 -18 -3 -23 2 -23
18 0 16 5 21 23 18 12 -2 22 -10 22 -18z m925 -30 c0 -11 -7 -20 -15 -20 -18
0 -19 6 -2 25 16 19 17 18 17 -5z m-616 -5 c18 -14 18 -15 -10 -26 -17 -6 -51
-8 -79 -5 -29 4 -45 3 -37 -2 9 -6 2 -12 -22 -19 -19 -6 -37 -9 -40 -6 -11 11
8 33 28 33 11 1 37 9 56 20 42 23 78 25 104 5z m60 0 c-4 -8 -13 -15 -21 -15
-13 0 -13 3 -3 15 7 8 16 15 21 15 5 0 6 -7 3 -15z m5080 7 c3 -5 -1 -9 -9 -9
-8 0 -15 4 -15 9 0 4 4 8 9 8 6 0 12 -4 15 -8z m-4574 -22 c0 -5 -2 -10 -4
-10 -3 0 -8 5 -11 10 -3 6 -1 10 4 10 6 0 11 -4 11 -10z m120 6 c0 -2 -9 -6
-20 -9 -11 -3 -18 -1 -14 4 5 9 34 13 34 5z m-205 -16 c-3 -5 -12 -10 -18 -10
-7 0 -6 4 3 10 19 12 23 12 15 0z m4649 1 c3 -5 -1 -11 -9 -14 -9 -4 -12 -1
-8 9 6 16 10 17 17 5z m-4621 -37 c-28 -24 -40 -41 -37 -52 4 -13 2 -12 -11 3
-15 19 -14 22 22 52 21 18 45 33 53 33 8 0 -3 -16 -27 -36z m261 17 c3 -4 -6
-6 -19 -3 -14 2 -25 6 -25 8 0 8 39 4 44 -5z m86 -8 c0 -3 -7 -3 -15 1 -8 3
-15 0 -15 -6 0 -6 -3 -9 -6 -5 -11 10 6 26 21 20 8 -3 15 -7 15 -10z m-552
-18 c-17 -14 -48 -24 -48 -15 0 5 7 10 15 10 8 0 15 5 15 11 0 5 5 7 11 4 6
-4 9 -8 7 -10z m134 -14 c-7 -49 -82 -115 -82 -72 0 6 80 101 85 101 1 0 0
-13 -3 -29z m2848 -9 c8 -20 14 -40 15 -44 0 -3 3 -10 8 -14 10 -10 9 -24 -2
-24 -8 0 -24 37 -22 53 1 4 -4 7 -10 7 -6 0 -9 7 -5 15 3 9 0 15 -8 15 -21 0
-27 26 -7 27 12 1 22 -11 31 -35z m1835 28 c3 -5 1 -10 -4 -10 -6 0 -11 5 -11
10 0 6 2 10 4 10 3 0 8 -4 11 -10z m-4469 -15 c-11 -8 -22 -12 -25 -9 -6 6 19
24 34 24 6 -1 1 -7 -9 -15z m-68 -15 c7 -12 8 -20 2 -20 -5 0 -10 5 -10 11 0
6 -16 1 -36 -12 l-36 -22 11 22 c7 12 16 19 20 16 5 -3 11 2 15 10 7 20 19 19
34 -5z m119 -6 c-3 -3 -12 -4 -19 -1 -8 3 -5 6 6 6 11 1 17 -2 13 -5z m80 -16
c-3 -8 -6 -5 -6 6 -1 11 2 17 5 13 3 -3 4 -12 1 -19z m4333 12 c0 -5 -5 -10
-11 -10 -5 0 -7 5 -4 10 3 6 8 10 11 10 2 0 4 -4 4 -10z m-4792 -35 c-41 -48
-49 -55 -68 -55 -10 0 -22 -4 -25 -10 -10 -17 -35 -11 -34 8 0 9 3 12 5 6 7
-16 73 19 109 56 35 37 45 32 13 -5z m-157 -2 c13 -16 12 -17 -3 -4 -10 7 -18
15 -18 17 0 8 8 3 21 -13z m699 7 c0 -5 -2 -10 -4 -10 -3 0 -8 5 -11 10 -3 6
-1 10 4 10 6 0 11 -4 11 -10z m41 -13 c-10 -9 -11 -8 -5 6 3 10 9 15 12 12 3
-3 0 -11 -7 -18z m4203 8 c3 -8 1 -15 -4 -15 -6 0 -10 7 -10 15 0 8 2 15 4 15
2 0 6 -7 10 -15z m-4474 -15 c-9 -17 -58 -50 -75 -50 -13 0 13 32 41 51 37 24
47 24 34 -1z m-501 -16 c17 11 13 2 -9 -24 -11 -13 -20 -29 -20 -37 0 -8 -6
-13 -12 -10 -7 2 -19 -3 -26 -12 -10 -13 -10 -11 0 12 7 17 14 23 18 16 5 -7
9 -5 14 6 8 23 8 27 -4 20 -13 -8 -13 1 2 25 8 12 15 15 19 8 4 -6 12 -7 18
-4z m338 -28 c-14 -21 -35 -38 -57 -44 -32 -10 -33 -10 -16 3 11 8 24 15 29
15 4 0 6 4 2 9 -3 5 3 12 14 16 11 3 22 12 25 20 3 8 10 15 15 15 6 0 0 -15
-12 -34z m4633 25 c0 -6 -4 -12 -8 -15 -5 -3 -9 1 -9 9 0 8 4 15 9 15 4 0 8
-4 8 -9z m-4665 -8 c-11 -3 -30 -14 -43 -26 l-22 -21 4 25 c2 13 5 24 5 24 1
0 18 1 39 1 20 1 28 0 17 -3z m115 -2 c0 -13 -29 -35 -37 -28 -3 4 -12 2 -20
-5 -16 -13 -28 -5 -18 12 13 21 75 39 75 21z m-237 -40 c-28 -16 -64 -31 -80
-35 l-28 -7 25 21 c14 11 37 23 53 27 15 3 30 10 33 14 3 5 15 9 27 9 16 0 7
-8 -30 -29z m334 12 c-9 -9 -19 -14 -23 -11 -10 10 6 28 24 28 15 0 15 -1 -1
-17z m4439 -19 c-6 -32 -12 -39 -21 -25 -3 6 -1 11 5 11 6 0 8 5 5 10 -3 6 -3
15 0 20 11 18 16 11 11 -16z m-4911 6 c-3 -5 -12 -10 -18 -10 -7 0 -6 4 3 10
19 12 23 12 15 0z m505 6 c0 -2 -7 -6 -15 -10 -8 -3 -15 -1 -15 4 0 6 7 10 15
10 8 0 15 -2 15 -4z m6946 -11 c-11 -8 -23 -15 -28 -15 -4 0 -8 -6 -8 -14 0
-8 -4 -17 -8 -20 -5 -3 -9 2 -9 11 0 8 14 24 31 34 37 22 49 24 22 4z m-7162
-31 c3 -8 2 -12 -4 -9 -6 3 -10 1 -10 -6 0 -7 -2 -10 -5 -7 -5 5 4 38 10 38 2
0 6 -7 9 -16z m-103 -8 c-9 -11 -3 -14 35 -20 25 -3 57 -3 70 0 15 4 24 2 24
-6 0 -7 11 -10 28 -9 15 2 33 -1 41 -6 11 -6 13 -4 9 7 -4 8 0 15 7 15 8 0 13
-5 12 -11 -1 -6 7 -11 18 -11 11 0 23 -4 26 -9 8 -10 29 1 29 14 0 5 -8 11
-17 13 -14 4 -12 5 5 6 13 1 22 -5 22 -13 0 -16 37 -46 55 -46 7 0 10 12 7 30
-2 17 0 30 6 30 6 0 8 -17 7 -37 -3 -30 2 -44 23 -68 15 -16 20 -24 11 -17 -8
6 -27 9 -42 6 -16 -2 -27 0 -27 7 0 9 -3 9 -14 0 -7 -6 -22 -8 -31 -4 -14 5
-17 3 -12 -10 4 -11 1 -17 -8 -17 -8 0 -15 -4 -15 -10 0 -5 -4 -10 -10 -10 -5
0 -10 11 -10 24 0 31 -14 40 -30 21 -19 -22 -43 -18 -76 13 -52 49 -131 68
-165 40 -41 -34 -58 -98 -26 -98 6 0 1 -10 -11 -23 -12 -13 -22 -27 -22 -32 0
-18 -46 -102 -77 -142 -18 -23 -33 -50 -33 -61 0 -11 -7 -25 -15 -32 -8 -7
-15 -17 -15 -22 0 -5 -13 -28 -29 -51 -24 -36 -55 -132 -49 -155 3 -11 -22
-122 -35 -157 -6 -16 -10 -41 -9 -55 3 -30 -68 -124 -146 -192 -17 -14 -27
-30 -24 -34 4 -4 1 -4 -5 0 -22 12 -15 116 17 242 20 78 33 157 37 229 6 116
26 187 68 235 34 39 95 149 95 171 0 27 -27 35 -50 14 -18 -16 -20 -16 -26 -1
-22 57 -128 -31 -219 -184 -6 -9 -15 -15 -22 -13 -19 7 -110 -147 -95 -161 9
-10 2 -85 -13 -138 -7 -25 -11 -49 -8 -52 4 -3 2 -6 -4 -6 -5 0 -10 -13 -11
-29 0 -17 -5 -38 -11 -49 -6 -11 -8 -22 -4 -25 3 -3 2 -14 -2 -24 -5 -10 -10
-26 -12 -36 -7 -38 -35 -78 -61 -88 -17 -6 -22 -13 -15 -17 17 -10 -4 -90 -30
-119 l-20 -23 27 0 c23 0 27 -3 21 -17 -4 -10 -17 -53 -28 -96 -12 -50 -26
-81 -36 -85 -9 -3 -19 -10 -23 -16 -9 -12 -8 -17 -10 234 -1 143 3 217 19 325
12 77 25 189 29 249 l7 108 96 105 c103 112 111 123 87 123 -9 0 -16 -5 -16
-11 0 -5 -8 -9 -18 -7 -22 3 -84 -35 -114 -70 -13 -15 -26 -28 -31 -30 -25 -6
-69 -36 -81 -55 -8 -12 -20 -56 -26 -97 -6 -41 -27 -133 -47 -205 -27 -101
-41 -135 -60 -152 -15 -13 -30 -23 -35 -23 -5 0 -16 -7 -24 -15 -14 -13 -13
-15 8 -16 22 0 22 -1 3 -8 -14 -6 -25 -3 -39 11 -17 18 -18 31 -13 117 4 53
16 130 27 171 11 41 20 99 20 129 0 51 -1 53 -18 38 -10 -9 -26 -38 -35 -66
-32 -88 -93 -133 -120 -89 -21 32 80 273 127 303 13 9 54 21 90 27 36 6 66 14
66 18 0 4 18 6 40 5 22 -1 37 2 34 6 -3 5 2 6 10 3 10 -4 16 -1 16 7 0 7 3 9
7 6 3 -4 12 1 20 11 8 9 12 11 8 5 -8 -16 3 -16 43 -2 18 6 29 15 26 20 -3 5
1 6 9 3 20 -7 201 53 219 73 9 10 23 32 32 50 8 17 37 46 63 64 50 34 93 40
143 20 l25 -10 -22 -7 c-13 -3 -23 -10 -23 -15 0 -5 -8 -9 -17 -9 -16 0 -16
-1 -1 -17 14 -13 20 -14 31 -4 8 6 29 14 47 16 42 5 51 15 14 15 -22 0 -26 3
-14 10 8 6 28 7 43 4 15 -3 34 -1 42 6 9 7 15 8 20 0 3 -5 1 -10 -6 -10 -7 0
-9 -3 -6 -7 4 -3 17 -2 30 4 91 44 132 59 135 52 2 -5 13 -9 25 -9 17 0 19 -2
7 -10 -10 -6 -4 -8 20 -8 19 1 29 3 23 5 -24 8 -13 36 16 42 2 1 -2 -5 -8 -13z
m7193 -11 c-4 -8 -11 -15 -16 -15 -6 0 -5 6 2 15 7 8 14 15 16 15 2 0 1 -7 -2
-15z m-2479 -35 c-3 -5 -11 -10 -16 -10 -6 0 -7 5 -4 10 3 6 11 10 16 10 6 0
7 -4 4 -10z m2425 -15 c-7 -8 -18 -15 -24 -15 -6 0 -2 7 8 15 25 19 32 19 16
0z m-6716 -27 c-3 -4 -1 -8 3 -8 5 0 14 -9 21 -20 12 -19 11 -19 -22 2 -35 23
-39 35 -12 35 8 0 13 -4 10 -9z m6681 -10 c-11 -6 -29 -18 -40 -27 -14 -11
-12 -7 4 12 14 15 32 27 40 27 12 -1 11 -3 -4 -12z m-2411 -14 c3 -8 2 -12 -4
-9 -6 3 -10 10 -10 16 0 14 7 11 14 -7z m-4 -52 c-6 -2 -10 -11 -10 -19 0 -9
-3 -14 -6 -10 -4 3 -3 18 0 34 6 21 9 24 16 12 6 -8 6 -15 0 -17z m-4340 -9
c0 -3 -3 -3 -7 0 -3 4 -15 0 -25 -10 -18 -16 -23 -8 -12 21 5 12 10 13 25 5
10 -5 19 -13 19 -16z m6686 2 c-3 -9 -10 -13 -16 -10 -5 3 -10 -1 -10 -9 0 -9
-4 -16 -10 -16 -13 0 -12 11 4 32 7 10 16 15 19 11 4 -3 7 0 7 7 0 7 3 11 6 7
4 -3 4 -13 0 -22z m-3941 -35 c3 -6 -1 -7 -9 -4 -18 7 -21 14 -7 14 6 0 13 -4
16 -10z m3905 -21 c0 -14 -17 -10 -23 5 -4 10 -1 13 9 9 7 -3 14 -9 14 -14z
m-2326 -26 c-1 -16 -3 -36 -3 -46 -1 -10 -6 -15 -12 -12 -6 4 -7 20 -3 38 11
52 21 63 18 20z m-1539 -43 c3 -5 1 -10 -4 -10 -6 0 -11 5 -11 10 0 6 2 10 4
10 3 0 8 -4 11 -10z m3917 -30 c-18 -17 -32 -25 -32 -18 0 13 52 59 59 52 2
-2 -10 -17 -27 -34z m-3896 -5 c-1 -8 -5 -17 -8 -21 -5 -4 -4 16 1 34 3 9 9
-1 7 -13z m1474 -9 c0 -3 -4 -8 -10 -11 -5 -3 -10 -1 -10 4 0 6 5 11 10 11 6
0 10 -2 10 -4z m-1446 -32 c5 -14 4 -15 -9 -4 -17 14 -19 20 -6 20 5 0 12 -7
15 -16z m3826 -4 c0 -5 -5 -10 -11 -10 -5 0 -7 5 -4 10 3 6 8 10 11 10 2 0 4
-4 4 -10z m-2355 -10 c3 -5 1 -10 -4 -10 -6 0 -11 5 -11 10 0 6 2 10 4 10 3 0
8 -4 11 -10z m-22 -75 c-3 -9 -8 -14 -10 -11 -3 3 -2 9 2 15 9 16 15 13 8 -4z
m-2328 -165 l30 -14 -47 -6 c-59 -7 -66 -14 -42 -41 17 -19 26 -21 84 -15 35
4 69 11 76 17 11 9 268 -37 424 -76 58 -14 281 -46 465 -65 61 -7 137 -16 170
-20 88 -12 272 -5 419 15 124 17 130 17 162 0 28 -15 32 -21 23 -36 -7 -15 -6
-19 5 -19 9 0 13 6 10 14 -8 21 12 29 38 15 l22 -12 -22 -8 c-32 -12 -27 -34
13 -66 19 -15 35 -31 35 -35 0 -5 -17 -8 -37 -8 -39 0 -95 28 -125 63 -16 18
-18 18 -24 3 -4 -12 7 -30 38 -61 25 -24 42 -49 38 -55 -6 -10 -111 -37 -185
-46 -37 -5 -114 10 -177 35 -24 9 -26 12 -15 35 7 14 19 26 27 26 9 0 23 9 33
20 9 11 26 20 38 20 12 0 19 5 16 13 -2 6 -16 12 -30 12 -15 -1 -27 4 -27 10
-1 5 -11 -3 -24 -19 -20 -24 -26 -27 -45 -17 -11 7 -21 9 -21 5 0 -3 -6 -2
-13 4 -23 19 -57 3 -57 -28 0 -25 -30 -50 -60 -50 -19 0 -10 32 10 37 22 6 26
18 8 29 -6 4 -16 0 -22 -8 -11 -15 -17 -18 -37 -18 -6 0 -9 -7 -5 -15 3 -8 1
-15 -5 -15 -6 0 -13 9 -16 19 -4 15 -16 21 -57 25 -76 8 -291 18 -456 22 -80
1 -152 3 -160 4 -9 0 -6 6 10 15 20 12 56 14 195 8 251 -9 258 -9 262 4 5 14
-16 21 -97 28 -36 4 -81 8 -100 11 -19 3 -61 6 -94 9 -62 4 -150 22 -177 36
-9 4 -20 4 -26 -2 -6 -6 -35 -3 -82 7 -52 12 -69 20 -62 27 6 6 11 18 11 26 0
8 -2 12 -6 9 -3 -3 -26 1 -51 8 -62 19 -103 18 -103 -1 0 -19 14 -25 83 -35
l52 -8 -42 -1 c-23 0 -80 -10 -125 -21 -46 -10 -121 -26 -167 -35 -86 -15
-120 -35 -79 -45 12 -3 25 -14 29 -25 4 -11 8 -14 8 -7 1 15 63 16 78 1 22
-22 134 -22 220 0 85 22 123 25 186 15 48 -8 47 -18 -5 -33 -81 -25 -92 -31
-80 -43 7 -7 12 -15 12 -19 0 -4 -55 -10 -122 -14 -100 -5 -145 -3 -238 14
-79 13 -169 20 -290 21 -96 1 -180 2 -186 1 -6 0 -17 -16 -26 -33 -9 -18 -39
-62 -67 -97 -28 -35 -54 -76 -57 -90 -10 -47 -24 -76 -52 -106 -34 -38 -85
-101 -152 -189 -28 -38 -72 -92 -97 -120 -46 -53 -88 -119 -123 -196 -12 -25
-25 -52 -30 -60 -5 -8 -31 -50 -57 -92 -27 -43 -54 -77 -60 -78 -7 0 -19 13
-27 28 -13 25 -13 32 4 69 10 23 34 66 54 97 19 30 45 88 57 128 33 109 55
155 105 222 52 69 93 143 72 130 -7 -4 -34 -23 -59 -41 -26 -18 -50 -33 -55
-33 -5 0 -31 -17 -59 -38 -27 -20 -81 -58 -120 -83 -83 -55 -102 -73 -175
-164 -30 -37 -82 -100 -115 -139 -33 -39 -69 -84 -78 -99 -24 -37 -49 -31 -63
13 -9 26 -17 34 -30 31 -52 -11 -59 -7 -62 33 -3 28 5 54 27 96 17 32 31 66
31 76 0 11 21 51 46 89 25 39 54 86 64 105 34 65 127 167 175 191 25 12 136
101 248 197 111 96 211 180 223 188 11 8 46 19 76 24 31 6 140 46 244 89 209
86 278 119 342 163 83 57 120 69 202 65 41 -2 89 -10 105 -17z m4759 -10 c39
-6 90 -22 118 -37 49 -27 138 -113 138 -134 0 -8 -4 -8 -15 1 -19 16 -40 3
-24 -16 9 -11 8 -14 -4 -14 -8 0 -18 7 -21 16 -6 16 -8 16 -24 0 -10 -9 -29
-16 -41 -16 -16 0 -21 -4 -17 -15 7 -20 -3 -19 -27 2 -18 17 -19 17 -29 0 -6
-11 -16 -16 -27 -12 -10 3 -24 -1 -31 -10 -8 -9 -21 -13 -32 -9 -23 7 -78 -16
-78 -33 0 -19 -11 -16 -37 9 l-23 21 0 -22 c0 -20 -4 -23 -30 -19 -27 4 -35
-2 -31 -24 1 -11 -7 -10 -30 2 -15 8 -29 5 -62 -13 -39 -22 -46 -23 -70 -10
-29 15 -32 12 -17 -17 13 -24 -3 -35 -20 -15 -18 21 -30 19 -30 -6 0 -17 -3
-19 -14 -10 -11 9 -18 8 -32 -6 -17 -17 -17 -17 -11 0 3 9 5 17 3 17 -3 0 -12
3 -22 7 -12 4 -15 2 -12 -8 4 -13 -13 -39 -26 -39 -3 0 -6 11 -6 25 0 16 -6
25 -15 25 -9 0 -15 -10 -15 -26 0 -18 -5 -24 -17 -22 -10 1 -24 -2 -32 -7 -10
-5 -16 -4 -19 3 -2 6 -10 8 -18 5 -8 -3 -14 0 -14 7 0 8 -12 11 -34 8 -19 -2
-32 0 -29 5 3 5 -4 6 -17 2 -15 -5 -25 -2 -31 6 -6 10 -9 8 -9 -8 0 -28 -1
-28 -47 -3 -28 15 -39 17 -45 7 -5 -8 -8 -7 -8 5 0 9 -5 20 -12 24 -8 5 -9 2
-5 -9 3 -9 2 -19 -3 -22 -6 -4 -10 4 -10 17 l-1 23 -14 -25 -14 -25 -1 30 c-1
17 -4 24 -7 17 -4 -10 -8 -10 -19 -1 -8 7 -17 9 -21 6 -3 -4 -11 1 -18 10 -11
15 -15 13 -43 -18 -24 -26 -33 -31 -43 -22 -6 6 -18 9 -26 6 -8 -3 -19 0 -23
7 -7 11 -11 11 -25 0 -14 -11 -17 -10 -22 8 -5 21 -6 21 -33 5 -23 -13 -32
-14 -43 -4 -10 8 -17 9 -22 1 -3 -5 -1 -10 4 -10 6 0 11 -5 11 -12 0 -7 -16 3
-35 22 -38 37 -55 35 -37 -5 7 -15 8 -25 2 -25 -6 0 -10 5 -10 11 0 5 -4 7
-10 4 -5 -3 -10 -2 -10 3 0 5 -7 9 -15 9 -8 0 -15 -4 -15 -9 0 -12 -23 -5 -37
12 -7 8 -13 11 -13 6 0 -5 -7 -3 -15 4 -8 6 -20 8 -26 4 -22 -13 -68 -12 -73
2 -3 7 -14 11 -25 9 -11 -2 -23 0 -26 6 -4 5 -16 7 -29 3 -17 -4 -25 1 -34 21
-12 26 -12 26 -42 8 -23 -13 -32 -15 -42 -5 -7 7 -20 12 -30 12 -10 0 -18 5
-18 11 0 5 -8 9 -17 8 -10 -1 -31 3 -46 9 -16 7 -32 12 -37 12 -4 0 -23 7 -41
15 -31 15 -10 15 261 9 539 -12 725 -4 976 45 68 12 104 23 189 56 191 73 376
124 455 124 30 0 86 -4 124 -9z m-2789 -10 c4 -6 4 -18 1 -26 -5 -13 -9 -13
-31 2 -14 9 -22 20 -19 25 7 12 41 11 49 -1z m131 -37 c-4 -4 -11 -1 -16 7
-16 25 -11 35 7 17 9 -9 13 -20 9 -24z m-93 10 c-9 -28 -24 -43 -40 -43 -11 0
-11 6 4 30 19 32 47 42 36 13z m-256 -67 c-12 -18 -24 -29 -26 -24 -5 15 21
58 35 58 9 0 6 -11 -9 -34z m86 12 c-8 -9 -12 -22 -8 -28 3 -6 1 -9 -7 -8 -13
3 -26 23 -27 43 -1 6 12 10 28 10 27 0 28 -1 14 -17z m60 -35 c-3 -7 -10 -13
-15 -13 -6 0 -8 7 -5 15 4 8 2 17 -4 20 -5 4 -7 11 -3 16 8 14 33 -22 27 -38z
m576 -11 c38 -40 85 -143 96 -208 5 -33 -1 -25 -42 53 -56 108 -99 157 -145
168 -29 6 -31 8 -13 15 41 18 68 10 104 -28z m-415 19 c3 -5 -1 -12 -10 -15
-22 -9 -24 -8 -24 9 0 16 25 21 34 6z m136 -52 c0 -20 -15 -26 -24 -10 -8 13
4 42 15 35 5 -3 9 -14 9 -25z m-390 17 c0 -3 -4 -8 -10 -11 -5 -3 -10 -1 -10
4 0 6 5 11 10 11 6 0 10 -2 10 -4z m70 -17 c0 -5 -7 -9 -15 -9 -8 0 -15 7 -15
15 0 9 6 12 15 9 8 -4 15 -10 15 -15z m70 12 c0 -5 -7 -12 -16 -15 -14 -5 -15
-4 -4 9 14 17 20 19 20 6z m121 -54 c-9 -9 -14 -8 -21 3 -7 11 -4 17 8 21 21
8 29 -8 13 -24z m-4253 -72 c-4 -69 -23 -103 -52 -92 -11 5 -16 20 -16 52 0
58 23 105 51 105 20 0 21 -4 17 -65z m4155 58 c-7 -2 -19 -2 -25 0 -7 3 -2 5
12 5 14 0 19 -2 13 -5z m127 -58 c0 -7 -7 -15 -15 -19 -15 -5 -22 24 -9 37 9
9 24 -2 24 -18z m-4920 -12 c8 -9 -94 8 -103 17 -5 4 15 3 45 -2 29 -5 55 -12
58 -15z m5114 -8 c3 -8 1 -15 -4 -15 -6 0 -10 7 -10 15 0 8 2 15 4 15 2 0 6
-7 10 -15z m-179 -65 c-10 -11 -20 -18 -23 -15 -7 6 18 35 31 35 5 0 2 -9 -8
-20z m1385 -5 c0 -8 -7 -15 -15 -15 -16 0 -20 12 -8 23 11 12 23 8 23 -8z
m-6347 -12 c-7 -2 -21 -2 -30 0 -10 3 -4 5 12 5 17 0 24 -2 18 -5z m6882 -23
c3 -5 1 -10 -4 -10 -6 0 -11 5 -11 10 0 6 2 10 4 10 3 0 8 -4 11 -10z m-2828
-20 c5 -26 -46 -52 -116 -60 -75 -8 -112 2 -71 19 14 6 32 15 40 20 27 16 105
39 125 37 11 0 21 -8 22 -16z m827 11 c3 -5 -1 -14 -9 -21 -13 -10 -15 -9 -15
9 0 21 14 28 24 12z m-112 -43 c27 -22 31 -69 8 -106 -24 -40 -114 -85 -157
-79 -40 5 -53 45 -29 89 33 64 43 79 62 93 24 18 95 19 116 3z m-965 -14 c-3
-3 -12 -4 -19 -1 -8 3 -5 6 6 6 11 1 17 -2 13 -5z m-3807 -21 c-8 -2 -22 -7
-30 -11 -19 -7 -50 -11 -50 -5 0 8 45 22 70 22 14 -1 18 -3 10 -6z m113 -9 c4
-4 3 -12 -1 -18 -4 -6 -7 -13 -7 -16 -1 -3 -9 -22 -18 -43 -15 -35 -15 -41 -2
-60 21 -31 19 -37 -14 -37 -42 0 -62 23 -51 59 4 16 6 32 3 35 -9 9 37 74 55
79 27 7 28 7 35 1z m3567 -24 c-20 -13 -33 -13 -25 0 3 6 14 10 23 10 15 0 15
-2 2 -10z m-245 -10 c3 -5 -8 -21 -25 -36 -16 -15 -30 -34 -30 -41 0 -18 -81
-53 -185 -82 -44 -12 -97 -27 -118 -33 -54 -16 -54 -6 1 32 26 18 62 48 80 66
53 51 166 104 223 104 26 0 50 -4 54 -10z m1555 -7 c0 -5 -5 -15 -10 -23 -8
-12 -10 -11 -10 8 0 12 5 22 10 22 6 0 10 -3 10 -7z m0 -98 c0 -8 -4 -15 -10
-15 -5 0 -7 7 -4 15 4 8 8 15 10 15 2 0 4 -7 4 -15z m-2115 -135 c-3 -5 -15
-10 -26 -10 -11 0 -23 -8 -26 -17 -4 -10 -28 -42 -55 -72 -27 -29 -63 -74 -80
-100 -17 -25 -79 -95 -138 -156 -188 -192 -230 -237 -268 -284 -46 -58 -110
-121 -122 -121 -16 0 -11 49 7 78 10 15 32 45 50 66 18 22 33 43 33 47 0 24
91 137 180 224 56 55 133 142 171 192 75 101 122 139 190 152 62 12 91 13 84
1z m-2260 -110 c13 -5 14 -9 5 -9 -8 0 -24 4 -35 9 -13 5 -14 9 -5 9 8 0 24
-4 35 -9z m-910 -40 c3 -5 -3 -10 -14 -10 -12 0 -21 5 -21 10 0 6 6 10 14 10
8 0 18 -4 21 -10z m260 -10 c-3 -5 -10 -10 -16 -10 -5 0 -9 5 -9 10 0 6 7 10
16 10 8 0 12 -4 9 -10z m460 -45 l30 -16 -35 7 c-35 7 -79 33 -80 47 0 7 18
-1 85 -38z m410 25 c13 -6 15 -9 5 -9 -8 0 -22 4 -30 9 -18 12 -2 12 25 0z
m250 -10 c3 -5 4 -10 1 -10 -2 0 -11 -3 -19 -6 -8 -3 -17 2 -20 10 -7 18 27
23 38 6z m-1219 -16 c18 -14 18 -14 -6 -3 -31 14 -36 19 -24 19 6 0 19 -7 30
-16z m509 -14 c3 -5 -3 -10 -14 -10 -12 0 -21 5 -21 10 0 6 6 10 14 10 8 0 18
-4 21 -10z m-430 -10 c-3 -5 -15 -10 -25 -10 -10 0 -22 5 -25 10 -4 6 7 10 25
10 18 0 29 -4 25 -10z m295 -10 c0 -5 -10 -10 -22 -10 -19 0 -20 2 -8 10 19
13 30 13 30 0z m440 -5 c-7 -8 -16 -15 -21 -15 -5 0 -9 7 -9 15 0 9 9 15 21
15 18 0 19 -2 9 -15z m-540 -71 c0 -3 -10 -8 -22 -13 -31 -12 -115 29 -103 49
5 8 125 -27 125 -36z m434 16 c36 -16 66 -31 66 -34 0 -2 -16 0 -36 4 -20 5
-43 6 -50 3 -10 -3 -12 0 -8 10 4 10 -4 21 -23 31 -46 25 -19 18 51 -14z
m-865 -6 c2 -2 2 -7 -1 -10 -4 -3 -19 2 -35 10 l-28 16 30 -6 c17 -4 32 -8 34
-10z m211 -4 c0 -5 -4 -10 -10 -10 -5 0 -10 5 -10 10 0 6 5 10 10 10 6 0 10
-4 10 -10z m487 -38 c-9 -2 -15 -7 -12 -12 3 -4 -2 -10 -10 -14 -8 -3 -15 0
-15 6 0 15 33 37 45 30 5 -4 2 -8 -8 -10z m453 -3 c0 -5 -7 -9 -15 -9 -15 0
-20 12 -9 23 8 8 24 -1 24 -14z m1465 12 c3 -5 1 -13 -5 -16 -15 -9 -43 3 -35
15 8 13 32 13 40 1z m-2476 -46 c24 -12 24 -13 3 -19 -25 -8 -89 7 -117 28
-18 14 -15 15 35 9 30 -3 66 -11 79 -18z m419 -33 c-37 -3 -98 20 -98 38 0 19
37 15 85 -9 l50 -26 -37 -3z m505 4 c22 -17 22 -26 -3 -26 -10 0 -24 9 -30 20
-13 24 5 27 33 6z m-805 -46 c44 -20 56 -40 23 -40 -20 0 -94 30 -121 49 -27
19 52 12 98 -9z m379 -6 c-3 -3 -12 -4 -19 -1 -8 3 -5 6 6 6 11 1 17 -2 13 -5z
m81 -24 c26 -12 41 -24 37 -31 -13 -19 -105 17 -105 41 0 15 20 12 68 -10z
m212 0 c0 -5 -9 -10 -20 -10 -11 0 -20 5 -20 10 0 6 9 10 20 10 11 0 20 -4 20
-10z m1425 0 c3 -5 -3 -10 -14 -10 -11 0 -23 5 -26 10 -3 6 3 10 14 10 11 0
23 -4 26 -10z m-1095 -21 c0 -5 -4 -9 -10 -9 -5 0 -10 7 -10 16 0 8 5 12 10 9
6 -3 10 -10 10 -16z m86 -36 c-8 -8 -36 5 -36 17 0 7 6 7 21 0 11 -7 18 -14
15 -17z m1754 1 c14 -7 19 -13 12 -14 -17 0 -82 27 -82 35 0 8 37 -3 70 -21z
m-2674 -10 c50 -34 49 -33 38 -44 -6 -6 -32 1 -73 21 -46 23 -60 34 -50 40 23
15 44 10 85 -17z m809 6 c3 -5 1 -10 -4 -10 -6 0 -11 5 -11 10 0 6 2 10 4 10
3 0 8 -4 11 -10z m-330 -40 c8 -13 -44 2 -56 16 -9 12 -6 12 20 3 17 -6 33
-14 36 -19z m1330 20 c3 -5 -1 -10 -9 -10 -8 0 -18 5 -21 10 -3 6 1 10 9 10 8
0 18 -4 21 -10z m-1415 -10 c0 -5 -7 -10 -15 -10 -8 0 -15 5 -15 10 0 6 7 10
15 10 8 0 15 -4 15 -10z m298 -17 c2 -8 -5 -13 -17 -13 -21 0 -35 13 -24 24
10 10 36 3 41 -11z m342 -4 c0 -5 -7 -9 -15 -9 -8 0 -15 7 -15 15 0 9 6 12 15
9 8 -4 15 -10 15 -15z m-527 -15 c21 -7 13 -24 -12 -24 -9 0 -35 9 -57 20
l-39 21 45 -6 c25 -4 53 -9 63 -11z m-348 -36 c14 -6 25 -15 25 -20 0 -4 6 -8
13 -8 6 -1 26 -7 42 -15 29 -15 29 -15 -23 -10 -34 4 -68 16 -93 32 -21 14
-39 27 -39 29 0 9 51 3 75 -8z m870 -29 c-8 -12 -32 -12 -40 1 -11 18 5 31 26
20 11 -6 17 -15 14 -21z m-350 -21 c14 -6 25 -15 25 -20 0 -11 -47 -10 -71 2
-45 25 -4 41 46 18z m210 -7 c7 -12 -12 -24 -25 -16 -11 7 -4 25 10 25 5 0 11
-4 15 -9z m420 -40 c10 -17 -10 -20 -35 -5 l-25 13 27 1 c15 0 29 -4 33 -9z
m-926 -24 c49 -24 61 -41 36 -51 -27 -10 -121 46 -109 65 8 14 25 10 73 -14z
m434 -39 c15 -7 27 -16 27 -20 0 -9 -58 11 -66 23 -7 13 7 11 39 -3z m253 -27
c-4 -5 -13 -8 -22 -4 -11 4 -12 8 -3 20 14 16 36 2 25 -16z m-495 -47 c48 -24
59 -46 27 -52 -20 -4 -110 57 -103 69 9 14 21 11 76 -17z m429 -39 c7 -8 8
-15 2 -15 -5 0 -15 7 -22 15 -7 8 -8 15 -2 15 5 0 15 -7 22 -15z m-207 -76
c24 -13 12 -29 -21 -29 -25 1 -72 30 -72 45 0 9 68 -3 93 -16z m452 -59 c3 -5
2 -10 -4 -10 -5 0 -13 5 -16 10 -3 6 -2 10 4 10 5 0 13 -4 16 -10z m-255 -54
c26 -15 37 -26 30 -31 -17 -10 -51 1 -85 29 -28 23 -28 25 -9 26 12 0 41 -11
64 -24z m2145 -116 c3 -5 2 -10 -4 -10 -5 0 -13 5 -16 10 -3 6 -2 10 4 10 5 0
13 -4 16 -10z m-287 -198 c3 -9 -2 -13 -14 -10 -9 1 -19 9 -22 16 -3 9 2 13
14 10 9 -1 19 -9 22 -16z"/>
<path d="M4546 10145 c-3 -8 -1 -17 3 -20 5 -3 11 2 15 10 3 8 1 17 -3 20 -5
3 -11 -2 -15 -10z"/>
<path d="M3966 9824 c-4 -9 -4 -19 -1 -22 2 -3 7 3 11 12 4 9 4 19 1 22 -2 3
-7 -3 -11 -12z"/>
<path d="M4300 9730 c-13 -9 -13 -10 0 -10 8 0 22 5 30 10 13 9 13 10 0 10 -8
0 -22 -5 -30 -10z"/>
<path d="M4255 9640 c-47 -10 -96 -29 -75 -29 22 0 108 23 116 32 4 4 5 7 3 6
-2 -1 -22 -5 -44 -9z"/>
<path d="M4228 9603 c7 -3 16 -2 19 1 4 3 -2 6 -13 5 -11 0 -14 -3 -6 -6z"/>
<path d="M4300 9570 c0 -5 5 -10 11 -10 5 0 7 5 4 10 -3 6 -8 10 -11 10 -2 0
-4 -4 -4 -10z"/>
<path d="M3010 9028 c-25 -82 -39 -172 -20 -128 15 33 52 192 46 197 -2 2 -14
-29 -26 -69z"/>
<path d="M3404 9119 c-10 -17 10 -29 23 -14 10 10 9 14 -2 19 -8 3 -17 0 -21
-5z"/>
<path d="M3181 8994 c0 -11 3 -14 6 -6 3 7 2 16 -1 19 -3 4 -6 -2 -5 -13z"/>
<path d="M3172 8870 c0 -14 2 -19 5 -12 2 6 2 18 0 25 -3 6 -5 1 -5 -13z"/>
<path d="M3282 8853 c-5 -15 -13 -35 -17 -44 -4 -10 0 -19 10 -23 9 -3 13 -2
10 4 -3 5 -1 26 4 47 12 44 8 56 -7 16z"/>
<path d="M3317 8773 c-4 -3 -7 -13 -7 -22 1 -13 3 -13 11 2 11 19 8 33 -4 20z"/>
<path d="M3252 8750 c0 -14 2 -19 5 -12 2 6 2 18 0 25 -3 6 -5 1 -5 -13z"/>
<path d="M3311 8584 c0 -11 3 -14 6 -6 3 7 2 16 -1 19 -3 4 -6 -2 -5 -13z"/>
<path d="M3330 8575 c1 -26 2 -28 11 -12 8 14 8 22 0 30 -8 8 -11 3 -11 -18z"/>
<path d="M3142 8475 c0 -16 2 -22 5 -12 2 9 2 23 0 30 -3 6 -5 -1 -5 -18z"/>
<path d="M3170 8419 c-7 -24 -14 -47 -17 -51 -2 -5 2 -8 10 -8 11 0 16 14 19
48 6 61 2 64 -12 11z"/>
<path d="M3342 8375 c0 -16 2 -22 5 -12 2 9 2 23 0 30 -3 6 -5 -1 -5 -18z"/>
<path d="M3196 8365 c-3 -9 -6 -24 -5 -33 0 -9 5 -4 10 12 9 32 6 48 -5 21z"/>
<path d="M3311 8304 c0 -11 3 -14 6 -6 3 7 2 16 -1 19 -3 4 -6 -2 -5 -13z"/>
<path d="M3301 8254 c0 -11 3 -14 6 -6 3 7 2 16 -1 19 -3 4 -6 -2 -5 -13z"/>
<path d="M3321 8194 c0 -11 3 -14 6 -6 3 7 2 16 -1 19 -3 4 -6 -2 -5 -13z"/>
<path d="M3345 8158 c-7 -25 -11 -88 -4 -80 8 8 19 92 12 92 -2 0 -5 -6 -8
-12z"/>
<path d="M3312 8130 c0 -14 2 -19 5 -12 2 6 2 18 0 25 -3 6 -5 1 -5 -13z"/>
<path d="M3331 8034 c0 -11 3 -14 6 -6 3 7 2 16 -1 19 -3 4 -6 -2 -5 -13z"/>
<path d="M3260 7830 c0 -11 2 -20 4 -20 2 0 6 9 9 20 3 11 1 20 -4 20 -5 0 -9
-9 -9 -20z"/>
<path d="M3246 7705 c-3 -9 -6 -22 -5 -28 0 -7 5 -1 10 12 5 13 8 26 5 28 -2
2 -6 -3 -10 -12z"/>
<path d="M3163 7448 c-16 -27 -17 -36 -7 -27 15 13 38 59 32 65 -2 1 -13 -16
-25 -38z"/>
<path d="M3233 7425 c-3 -9 -3 -18 -1 -21 3 -3 8 4 11 16 6 23 -1 27 -10 5z"/>
<path d="M2883 7235 c-34 -15 -41 -29 -21 -41 7 -4 8 -3 4 4 -4 7 9 19 31 31
44 23 34 27 -14 6z"/>
<path d="M4007 9168 c7 -8 10 -18 6 -22 -4 -4 0 -4 10 0 22 8 22 11 -5 25 -20
11 -21 10 -11 -3z"/>
<path d="M4131 9043 c12 -21 48 -38 58 -28 2 3 -2 5 -10 5 -12 0 -11 2 1 11
12 9 12 10 -4 5 -11 -4 -27 1 -39 11 -19 18 -19 17 -6 -4z"/>
<path d="M8380 8290 c0 -11 5 -20 10 -20 6 0 10 9 10 20 0 11 -4 20 -10 20 -5
0 -10 -9 -10 -20z"/>
<path d="M8470 7742 c-24 -19 -24 -21 -11 -70 7 -28 10 -60 7 -70 -7 -21 17
-48 33 -37 6 3 10 26 9 50 -2 30 3 50 14 61 14 14 17 14 37 -7 11 -12 25 -37
32 -56 13 -39 36 -43 67 -10 l21 22 -22 40 c-15 27 -37 47 -67 62 -70 34 -93
37 -120 15z"/>
<path d="M9152 7728 c-7 -7 -12 -20 -12 -29 0 -18 90 -119 106 -119 6 0 17 11
24 25 12 22 10 29 -14 64 -27 38 -65 71 -84 71 -4 0 -13 -5 -20 -12z"/>
<path d="M8946 7715 c-3 -9 -6 -34 -6 -56 0 -45 20 -60 52 -40 15 10 24 8 47
-9 16 -11 41 -20 55 -20 23 0 26 4 26 34 0 36 -6 43 -62 74 -54 30 -104 38
-112 17z"/>
<path d="M8754 7702 c-20 -13 -32 -47 -23 -69 7 -19 11 -20 51 -12 33 8 45 7
53 -4 19 -25 44 -28 55 -6 9 16 6 27 -20 59 -27 34 -37 40 -68 40 -21 0 -42
-4 -48 -8z"/>
<path d="M4440 7979 c0 -5 5 -7 10 -4 6 3 10 8 10 11 0 2 -4 4 -10 4 -5 0 -10
-5 -10 -11z"/>
<path d="M4505 6809 c-4 -6 -5 -12 -2 -15 2 -3 7 2 10 11 7 17 1 20 -8 4z"/>
<path d="M4363 6798 c-19 -24 -24 -38 -15 -38 5 0 14 11 20 25 13 27 10 32 -5
13z"/>
<path d="M3687 6771 c-4 -17 -3 -21 5 -13 5 5 8 16 6 23 -3 8 -7 3 -11 -10z"/>
<path d="M3635 6710 c-3 -6 1 -7 9 -4 18 7 21 14 7 14 -6 0 -13 -4 -16 -10z"/>
<path d="M3589 6663 c-13 -16 -12 -17 4 -4 9 7 17 15 17 17 0 8 -8 3 -21 -13z"/>
<path d="M4042 6648 c-14 -14 -16 -28 -3 -28 5 0 11 9 14 20 6 23 5 24 -11 8z"/>
<path d="M4800 6330 c-13 -8 -12 -10 3 -10 9 0 17 5 17 10 0 12 -1 12 -20 0z"/>
<path d="M4680 6311 c0 -6 4 -13 10 -16 6 -3 7 1 4 9 -7 18 -14 21 -14 7z"/>
<path d="M4772 6175 c0 -16 2 -22 5 -12 2 9 2 23 0 30 -3 6 -5 -1 -5 -18z"/>
<path d="M4734 6129 c-3 -6 -1 -16 4 -21 8 -8 11 -5 9 11 -1 24 -3 25 -13 10z"/>
<path d="M4370 6151 c0 -6 4 -13 10 -16 6 -3 7 1 4 9 -7 18 -14 21 -14 7z"/>
<path d="M4566 5867 c3 -10 9 -15 12 -12 3 3 0 11 -7 18 -10 9 -11 8 -5 -6z"/>
<path d="M5716 3787 c-27 -41 -29 -71 -7 -92 25 -22 36 -14 37 28 1 18 5 42 9
53 10 31 -21 40 -39 11z"/>
<path d="M1395 4980 c-3 -5 1 -10 10 -10 9 0 13 5 10 10 -3 6 -8 10 -10 10 -2
0 -7 -4 -10 -10z"/>
<path d="M1435 4980 c-4 -6 5 -10 20 -10 15 0 24 4 20 10 -3 6 -12 10 -20 10
-8 0 -17 -4 -20 -10z"/>
<path d="M1430 4938 c0 -18 2 -19 18 -7 9 7 18 14 20 15 1 1 -6 4 -18 7 -15 4
-20 0 -20 -15z"/>
<path d="M2720 2890 c0 -5 5 -10 11 -10 5 0 7 5 4 10 -3 6 -8 10 -11 10 -2 0
-4 -4 -4 -10z"/>
<path d="M5065 2160 c3 -5 8 -10 11 -10 2 0 4 5 4 10 0 6 -5 10 -11 10 -5 0
-7 -4 -4 -10z"/>
<path d="M4283 2100 c-40 -16 -92 -38 -115 -48 -24 -11 -52 -22 -62 -26 -10
-3 -16 -9 -13 -12 3 -4 20 -1 38 5 18 6 43 11 56 11 33 0 170 49 184 66 10 13
5 34 -9 34 -4 0 -39 -14 -79 -30z"/>
<path d="M4006 1971 c-3 -5 -37 -16 -74 -26 -54 -14 -80 -28 -118 -62 -47 -41
-48 -43 -19 -37 70 14 167 47 181 61 16 16 47 73 40 73 -3 0 -7 -4 -10 -9z"/>
<path d="M3393 1535 c-30 -14 -63 -39 -80 -61 -26 -35 -56 -69 -196 -219 -51
-55 -55 -61 -40 -77 21 -23 54 -7 82 40 12 21 41 68 64 106 31 52 57 80 101
110 46 32 143 129 125 125 -2 0 -27 -11 -56 -24z"/>
<path d="M8510 1980 c0 -5 5 -10 10 -10 6 0 10 5 10 10 0 6 -4 10 -10 10 -5 0
-10 -4 -10 -10z"/>
</g>
</svg>
